STARTFONT 2.1
FONT -Adobe-Helvetica-Medium-O-Normal--17-120-100-100-P-88-ISO10646-1
SIZE 12 100 100
FONTBOUNDINGBOX 22 27 -3 -7
COMMENT $Xorg: $
COMMENT ISO10646-1 extension by Markus Kuhn <mkuhn@acm.org>, 2001-03-20
COMMENT 
COMMENT +
COMMENT  Copyright 1984-1989, 1994 Adobe Systems Incorporated.
COMMENT  Copyright 1988, 1994 Digital Equipment Corporation.
COMMENT
COMMENT  Adobe is a trademark of Adobe Systems Incorporated which may be
COMMENT  registered in certain jurisdictions.
COMMENT  Permission to use these trademarks is hereby granted only in
COMMENT  association with the images described in this file.
COMMENT
COMMENT  Permission to use, copy, modify, distribute and sell this software
COMMENT  and its documentation for any purpose and without fee is hereby
COMMENT  granted, provided that the above copyright notices appear in all
COMMENT  copies and that both those copyright notices and this permission
COMMENT  notice appear in supporting documentation, and that the names of
COMMENT  Adobe Systems and Digital Equipment Corporation not be used in
COMMENT  advertising or publicity pertaining to distribution of the software
COMMENT  without specific, written prior permission.  Adobe Systems and
COMMENT  Digital Equipment Corporation make no representations about the
COMMENT  suitability of this software for any purpose.  It is provided "as
COMMENT  is" without express or implied warranty.
COMMENT -
STARTPROPERTIES 26
FOUNDRY "Adobe"
FAMILY_NAME "Helvetica"
WEIGHT_NAME "Medium"
SLANT "O"
SETWIDTH_NAME "Normal"
ADD_STYLE_NAME ""
PIXEL_SIZE 17
POINT_SIZE 120
RESOLUTION_X 100
RESOLUTION_Y 100
SPACING "P"
AVERAGE_WIDTH 88
CHARSET_REGISTRY "ISO10646"
CHARSET_ENCODING "1"
CAP_HEIGHT 12
X_HEIGHT 9
FONT_ASCENT 14
FONT_DESCENT 4
FACE_NAME "Helvetica Oblique"
COPYRIGHT "Copyright (c) 1984, 1987 Adobe Systems Incorporated. All Rights Reserved. Copyright (c) 1988, 1991 Digital Equipment Corporation. All Rights Reserved."

STARTCHAR char0
ENCODING 0
SWIDTH 722 0
DWIDTH 12 0
BBX 11 11 0 0
BITMAP
AAA0
0000
8020
0000
8020
0000
8020
0000
8020
0000
AAA0
ENDCHAR
STARTCHAR space
ENCODING 32
SWIDTH 278 0
DWIDTH 5 0
BBX 1 1 0 0
BITMAP
00
ENDCHAR
STARTCHAR exclam
ENCODING 33
SWIDTH 278 0
DWIDTH 5 0
BBX 4 12 1 0
BITMAP
10
10
10
20
20
20
40
40
40
00
80
80
ENDCHAR
STARTCHAR quotedbl
ENCODING 34
SWIDTH 355 0
DWIDTH 6 0
BBX 6 4 0 8
BITMAP
24
6C
48
90
ENDCHAR
STARTCHAR numbersign
ENCODING 35
SWIDTH 556 0
DWIDTH 9 0
BBX 9 12 0 0
BITMAP
0900
0900
1200
1200
7F80
1200
2400
FF00
2400
2400
4800
4800
ENDCHAR
STARTCHAR dollar
ENCODING 36
SWIDTH 556 0
DWIDTH 9 0
BBX 9 14 0 -1
BITMAP
0200
1E00
2500
4480
4480
4800
3800
0E00
0900
9100
9100
5200
3C00
2000
ENDCHAR
STARTCHAR percent
ENCODING 37
SWIDTH 889 0
DWIDTH 14 0
BBX 11 12 1 0
BITMAP
3080
4880
8900
9100
6200
0400
0400
08C0
1120
1220
2240
2180
ENDCHAR
STARTCHAR ampersand
ENCODING 38
SWIDTH 667 0
DWIDTH 11 0
BBX 9 12 0 0
BITMAP
0700
0880
0880
0900
0E00
3800
4400
8480
8300
8200
8500
7880
ENDCHAR
STARTCHAR quotesingle
ENCODING 39
SWIDTH 191 0
DWIDTH 3 0
BBX 3 4 0 8
BITMAP
60
60
40
80
ENDCHAR
STARTCHAR parenleft
ENCODING 40
SWIDTH 333 0
DWIDTH 6 0
BBX 5 15 1 -3
BITMAP
08
10
20
20
40
40
80
80
80
80
80
80
40
40
20
ENDCHAR
STARTCHAR parenright
ENCODING 41
SWIDTH 333 0
DWIDTH 6 0
BBX 5 15 -1 -3
BITMAP
20
10
10
08
08
08
08
08
08
10
10
20
20
40
80
ENDCHAR
STARTCHAR asterisk
ENCODING 42
SWIDTH 389 0
DWIDTH 6 0
BBX 5 5 1 7
BITMAP
20
A8
70
60
90
ENDCHAR
STARTCHAR plus
ENCODING 43
SWIDTH 584 0
DWIDTH 10 0
BBX 9 9 0 0
BITMAP
0400
0400
0400
0800
FF80
0800
1000
1000
1000
ENDCHAR
STARTCHAR comma
ENCODING 44
SWIDTH 278 0
DWIDTH 4 0
BBX 3 4 0 -2
BITMAP
20
20
40
80
ENDCHAR
STARTCHAR hyphen
ENCODING 45
SWIDTH 333 0
DWIDTH 5 0
BBX 4 1 0 4
BITMAP
F0
ENDCHAR
STARTCHAR period
ENCODING 46
SWIDTH 278 0
DWIDTH 4 0
BBX 1 2 2 0
BITMAP
80
80
ENDCHAR
STARTCHAR slash
ENCODING 47
SWIDTH 278 0
DWIDTH 5 0
BBX 7 12 -1 0
BITMAP
02
04
04
08
08
10
10
20
20
40
40
80
ENDCHAR
STARTCHAR zero
ENCODING 48
SWIDTH 556 0
DWIDTH 9 0
BBX 8 12 0 0
BITMAP
0E
11
21
21
41
41
82
82
84
84
88
70
ENDCHAR
STARTCHAR one
ENCODING 49
SWIDTH 556 0
DWIDTH 9 0
BBX 4 12 3 0
BITMAP
10
10
30
E0
20
20
40
40
40
80
80
80
ENDCHAR
STARTCHAR two
ENCODING 50
SWIDTH 556 0
DWIDTH 9 0
BBX 9 12 -1 0
BITMAP
0E00
1100
2080
0080
0080
0100
0600
1800
2000
4000
8000
FF00
ENDCHAR
STARTCHAR three
ENCODING 51
SWIDTH 556 0
DWIDTH 9 0
BBX 8 12 0 0
BITMAP
1E
21
41
01
02
1C
02
02
02
82
84
78
ENDCHAR
STARTCHAR four
ENCODING 52
SWIDTH 556 0
DWIDTH 9 0
BBX 9 12 -1 0
BITMAP
0180
0280
0480
0900
0900
1100
2200
4200
FF80
0200
0400
0400
ENDCHAR
STARTCHAR five
ENCODING 53
SWIDTH 556 0
DWIDTH 9 0
BBX 9 12 0 0
BITMAP
0F80
1000
1000
2000
3C00
4200
0100
0100
0100
8200
8400
7800
ENDCHAR
STARTCHAR six
ENCODING 54
SWIDTH 556 0
DWIDTH 9 0
BBX 8 12 0 0
BITMAP
0E
11
21
40
78
C4
82
82
82
82
44
38
ENDCHAR
STARTCHAR seven
ENCODING 55
SWIDTH 556 0
DWIDTH 9 0
BBX 8 12 1 0
BITMAP
7F
01
02
04
08
10
20
20
40
40
80
80
ENDCHAR
STARTCHAR eight
ENCODING 56
SWIDTH 556 0
DWIDTH 9 0
BBX 9 12 -1 0
BITMAP
0F00
1080
2080
2080
2100
1E00
2200
4100
8100
8100
8200
7C00
ENDCHAR
STARTCHAR nine
ENCODING 57
SWIDTH 556 0
DWIDTH 9 0
BBX 8 12 0 0
BITMAP
1C
22
41
41
41
41
23
1E
02
84
88
70
ENDCHAR
STARTCHAR colon
ENCODING 58
SWIDTH 278 0
DWIDTH 4 0
BBX 3 9 1 0
BITMAP
20
20
00
00
00
00
00
80
80
ENDCHAR
STARTCHAR semicolon
ENCODING 59
SWIDTH 278 0
DWIDTH 4 0
BBX 5 11 -1 -2
BITMAP
08
08
00
00
00
00
00
20
20
40
80
ENDCHAR
STARTCHAR less
ENCODING 60
SWIDTH 584 0
DWIDTH 10 0
BBX 10 8 0 1
BITMAP
00C0
0700
1800
6000
8000
6000
1C00
0300
ENDCHAR
STARTCHAR equal
ENCODING 61
SWIDTH 584 0
DWIDTH 10 0
BBX 9 4 0 2
BITMAP
7F80
0000
0000
FF00
ENDCHAR
STARTCHAR greater
ENCODING 62
SWIDTH 584 0
DWIDTH 10 0
BBX 10 8 0 1
BITMAP
3000
0E00
0180
0040
0180
0600
3800
C000
ENDCHAR
STARTCHAR question
ENCODING 63
SWIDTH 556 0
DWIDTH 9 0
BBX 7 12 2 0
BITMAP
3C
42
82
82
04
18
20
40
40
00
80
80
ENDCHAR
STARTCHAR at
ENCODING 64
SWIDTH 1015 0
DWIDTH 17 0
BBX 13 13 2 -1
BITMAP
03E0
0C10
1008
23C8
4448
4848
9088
9090
9190
4E60
4000
30C0
0F00
ENDCHAR
STARTCHAR A
ENCODING 65
SWIDTH 667 0
DWIDTH 11 0
BBX 10 12 -1 0
BITMAP
0180
0280
0280
0480
0880
0840
1040
3FC0
2040
4040
4040
8040
ENDCHAR
STARTCHAR B
ENCODING 66
SWIDTH 667 0
DWIDTH 11 0
BBX 11 12 0 0
BITMAP
1FC0
1020
1020
2020
2040
3F80
4080
4040
4040
8040
8080
FF00
ENDCHAR
STARTCHAR C
ENCODING 67
SWIDTH 722 0
DWIDTH 12 0
BBX 11 12 1 0
BITMAP
0780
1840
2020
4020
4000
8000
8000
8000
8040
8080
4300
3C00
ENDCHAR
STARTCHAR D
ENCODING 68
SWIDTH 722 0
DWIDTH 12 0
BBX 11 12 0 0
BITMAP
1F80
1040
1020
2020
2020
2020
4020
4040
4040
8080
8300
FC00
ENDCHAR
STARTCHAR E
ENCODING 69
SWIDTH 667 0
DWIDTH 11 0
BBX 11 12 0 0
BITMAP
1FE0
1000
1000
2000
2000
3F80
4000
4000
4000
8000
8000
FF00
ENDCHAR
STARTCHAR F
ENCODING 70
SWIDTH 611 0
DWIDTH 10 0
BBX 11 12 0 0
BITMAP
1FE0
1000
1000
2000
2000
3F80
4000
4000
4000
8000
8000
8000
ENDCHAR
STARTCHAR G
ENCODING 71
SWIDTH 778 0
DWIDTH 13 0
BBX 11 12 1 0
BITMAP
0780
1840
2020
4020
4000
8000
83E0
8020
8040
8040
4180
3E80
ENDCHAR
STARTCHAR H
ENCODING 72
SWIDTH 722 0
DWIDTH 12 0
BBX 12 12 0 0
BITMAP
1010
1010
1010
2020
2020
3FE0
4040
4040
4040
8080
8080
8080
ENDCHAR
STARTCHAR I
ENCODING 73
SWIDTH 278 0
DWIDTH 4 0
BBX 4 12 0 0
BITMAP
10
10
10
20
20
20
40
40
40
80
80
80
ENDCHAR
STARTCHAR J
ENCODING 74
SWIDTH 500 0
DWIDTH 8 0
BBX 8 12 0 0
BITMAP
01
01
01
02
02
02
04
04
84
88
88
70
ENDCHAR
STARTCHAR K
ENCODING 75
SWIDTH 667 0
DWIDTH 11 0
BBX 11 12 0 0
BITMAP
1020
1040
1180
2200
2400
3800
6400
4400
4200
8100
8100
8080
ENDCHAR
STARTCHAR L
ENCODING 76
SWIDTH 556 0
DWIDTH 9 0
BBX 7 12 0 0
BITMAP
10
10
10
20
20
20
40
40
40
80
80
FE
ENDCHAR
STARTCHAR M
ENCODING 77
SWIDTH 833 0
DWIDTH 13 0
BBX 13 12 0 0
BITMAP
1818
1818
1828
2828
2848
2850
4890
4490
4510
8520
8620
8620
ENDCHAR
STARTCHAR N
ENCODING 78
SWIDTH 722 0
DWIDTH 12 0
BBX 12 12 0 0
BITMAP
1810
1810
1810
2820
2420
2420
4440
4240
4240
8280
8180
8180
ENDCHAR
STARTCHAR O
ENCODING 79
SWIDTH 778 0
DWIDTH 13 0
BBX 11 12 1 0
BITMAP
0780
1840
2020
4020
4020
8020
8020
8040
8040
8080
4300
3C00
ENDCHAR
STARTCHAR P
ENCODING 80
SWIDTH 667 0
DWIDTH 11 0
BBX 11 12 0 0
BITMAP
1FC0
1020
1020
2020
2040
3F80
4000
4000
4000
8000
8000
8000
ENDCHAR
STARTCHAR Q
ENCODING 81
SWIDTH 778 0
DWIDTH 13 0
BBX 11 13 1 -1
BITMAP
0780
1840
2020
4020
4020
8020
8020
8040
8440
8280
4300
3D00
0080
ENDCHAR
STARTCHAR R
ENCODING 82
SWIDTH 722 0
DWIDTH 12 0
BBX 11 12 0 0
BITMAP
1FC0
1020
1020
2020
2040
3F80
4040
4040
4040
8080
8080
8080
ENDCHAR
STARTCHAR S
ENCODING 83
SWIDTH 667 0
DWIDTH 11 0
BBX 11 12 0 0
BITMAP
0780
1840
2020
2020
2000
1800
0700
0080
8080
8080
4100
3E00
ENDCHAR
STARTCHAR T
ENCODING 84
SWIDTH 611 0
DWIDTH 10 0
BBX 9 12 2 0
BITMAP
FF80
0800
0800
1000
1000
1000
2000
2000
2000
4000
4000
4000
ENDCHAR
STARTCHAR U
ENCODING 85
SWIDTH 722 0
DWIDTH 12 0
BBX 11 12 1 0
BITMAP
2020
2020
2020
4040
4040
4040
8080
8080
8100
8100
4200
3C00
ENDCHAR
STARTCHAR V
ENCODING 86
SWIDTH 667 0
DWIDTH 11 0
BBX 9 12 2 0
BITMAP
8080
8100
8100
8200
4200
4400
4400
4800
4800
3000
2000
2000
ENDCHAR
STARTCHAR W
ENCODING 87
SWIDTH 944 0
DWIDTH 16 0
BBX 15 12 2 0
BITMAP
8102
8304
8304
8508
8508
8910
4890
50A0
50A0
60C0
60C0
4080
ENDCHAR
STARTCHAR X
ENCODING 88
SWIDTH 667 0
DWIDTH 11 0
BBX 11 12 0 0
BITMAP
2020
1020
1040
0880
0900
0600
0C00
1200
2200
4100
8100
8080
ENDCHAR
STARTCHAR Y
ENCODING 89
SWIDTH 667 0
DWIDTH 11 0
BBX 10 12 2 0
BITMAP
8040
8080
4100
4200
2400
2800
1000
1000
1000
2000
2000
2000
ENDCHAR
STARTCHAR Z
ENCODING 90
SWIDTH 611 0
DWIDTH 10 0
BBX 12 12 -1 0
BITMAP
1FF0
0020
0040
0080
0100
0200
0400
0800
1000
2000
4000
FF80
ENDCHAR
STARTCHAR bracketleft
ENCODING 91
SWIDTH 278 0
DWIDTH 5 0
BBX 7 15 -1 -3
BITMAP
0E
08
08
10
10
10
20
20
20
40
40
40
80
80
E0
ENDCHAR
STARTCHAR backslash
ENCODING 92
SWIDTH 278 0
DWIDTH 5 0
BBX 4 12 0 0
BITMAP
80
80
80
40
40
40
20
20
20
10
10
10
ENDCHAR
STARTCHAR bracketright
ENCODING 93
SWIDTH 278 0
DWIDTH 5 0
BBX 7 15 -2 -3
BITMAP
0E
02
02
04
04
04
08
08
08
10
10
10
20
20
E0
ENDCHAR
STARTCHAR asciicircum
ENCODING 94
SWIDTH 469 0
DWIDTH 8 0
BBX 6 7 1 5
BITMAP
10
10
28
48
48
84
84
ENDCHAR
STARTCHAR underscore
ENCODING 95
SWIDTH 556 0
DWIDTH 9 0
BBX 9 1 -1 -3
BITMAP
FF80
ENDCHAR
STARTCHAR grave
ENCODING 96
SWIDTH 333 0
DWIDTH 6 0
BBX 3 3 1 10
BITMAP
C0
40
20
ENDCHAR
STARTCHAR a
ENCODING 97
SWIDTH 556 0
DWIDTH 9 0
BBX 8 9 0 0
BITMAP
1E
21
01
06
3A
42
84
8C
76
ENDCHAR
STARTCHAR b
ENCODING 98
SWIDTH 556 0
DWIDTH 9 0
BBX 8 12 0 0
BITMAP
10
10
10
2E
31
21
41
41
42
82
C4
B8
ENDCHAR
STARTCHAR c
ENCODING 99
SWIDTH 500 0
DWIDTH 8 0
BBX 8 9 0 0
BITMAP
1E
21
41
40
80
80
82
84
78
ENDCHAR
STARTCHAR d
ENCODING 100
SWIDTH 556 0
DWIDTH 9 0
BBX 9 12 0 0
BITMAP
0080
0080
0080
1D00
2300
4100
4200
8200
8200
8400
8C00
7400
ENDCHAR
STARTCHAR e
ENCODING 101
SWIDTH 556 0
DWIDTH 9 0
BBX 8 9 0 0
BITMAP
1E
21
41
41
FF
80
82
84
78
ENDCHAR
STARTCHAR f
ENCODING 102
SWIDTH 278 0
DWIDTH 5 0
BBX 6 12 1 0
BITMAP
0C
10
10
78
20
20
40
40
40
80
80
80
ENDCHAR
STARTCHAR g
ENCODING 103
SWIDTH 556 0
DWIDTH 9 0
BBX 10 13 -2 -4
BITMAP
0740
08C0
1040
1080
2080
2080
2100
2300
1D00
0200
8200
8400
7800
ENDCHAR
STARTCHAR h
ENCODING 104
SWIDTH 556 0
DWIDTH 9 0
BBX 9 12 0 0
BITMAP
1000
1000
1000
2F00
3080
2080
4100
4100
4100
8200
8200
8200
ENDCHAR
STARTCHAR i
ENCODING 105
SWIDTH 222 0
DWIDTH 3 0
BBX 4 12 0 0
BITMAP
10
10
00
20
20
20
40
40
40
80
80
80
ENDCHAR
STARTCHAR j
ENCODING 106
SWIDTH 222 0
DWIDTH 4 0
BBX 7 16 -3 -4
BITMAP
02
02
00
04
04
04
08
08
08
10
10
10
20
20
20
C0
ENDCHAR
STARTCHAR k
ENCODING 107
SWIDTH 500 0
DWIDTH 8 0
BBX 8 12 0 0
BITMAP
10
10
10
21
22
24
58
70
48
88
84
82
ENDCHAR
STARTCHAR l
ENCODING 108
SWIDTH 222 0
DWIDTH 4 0
BBX 4 12 0 0
BITMAP
10
10
10
20
20
20
40
40
40
80
80
80
ENDCHAR
STARTCHAR m
ENCODING 109
SWIDTH 833 0
DWIDTH 14 0
BBX 13 9 0 0
BITMAP
2E70
3188
2108
4210
4210
4210
8420
8420
8420
ENDCHAR
STARTCHAR n
ENCODING 110
SWIDTH 556 0
DWIDTH 9 0
BBX 9 9 0 0
BITMAP
2F00
3080
2080
4100
4100
4100
8200
8200
8200
ENDCHAR
STARTCHAR o
ENCODING 111
SWIDTH 556 0
DWIDTH 9 0
BBX 8 9 0 0
BITMAP
1E
21
41
41
81
82
82
84
78
ENDCHAR
STARTCHAR p
ENCODING 112
SWIDTH 556 0
DWIDTH 9 0
BBX 9 13 -1 -4
BITMAP
1700
1880
1080
2080
2080
2100
4100
6200
5C00
4000
8000
8000
8000
ENDCHAR
STARTCHAR q
ENCODING 113
SWIDTH 556 0
DWIDTH 9 0
BBX 8 13 0 -4
BITMAP
1D
23
41
42
82
82
84
8C
74
04
08
08
08
ENDCHAR
STARTCHAR r
ENCODING 114
SWIDTH 333 0
DWIDTH 5 0
BBX 6 9 0 0
BITMAP
2C
30
20
40
40
40
80
80
80
ENDCHAR
STARTCHAR s
ENCODING 115
SWIDTH 500 0
DWIDTH 8 0
BBX 8 9 0 0
BITMAP
1E
21
21
30
0C
02
82
84
78
ENDCHAR
STARTCHAR t
ENCODING 116
SWIDTH 278 0
DWIDTH 5 0
BBX 5 11 0 0
BITMAP
10
10
78
20
20
40
40
40
80
80
60
ENDCHAR
STARTCHAR u
ENCODING 117
SWIDTH 556 0
DWIDTH 9 0
BBX 9 9 0 0
BITMAP
2080
2080
2080
4100
4100
4100
8200
8600
7A00
ENDCHAR
STARTCHAR v
ENCODING 118
SWIDTH 500 0
DWIDTH 8 0
BBX 7 9 1 0
BITMAP
82
82
84
C4
48
48
50
70
20
ENDCHAR
STARTCHAR w
ENCODING 119
SWIDTH 722 0
DWIDTH 12 0
BBX 11 9 1 0
BITMAP
8420
8420
8440
CE40
4A80
5280
5300
2200
2200
ENDCHAR
STARTCHAR x
ENCODING 120
SWIDTH 500 0
DWIDTH 8 0
BBX 9 9 -1 0
BITMAP
2080
2100
1200
1400
0800
1400
2400
4200
8200
ENDCHAR
STARTCHAR y
ENCODING 121
SWIDTH 500 0
DWIDTH 8 0
BBX 9 13 -1 -4
BITMAP
2080
2080
2100
1100
1200
1200
0C00
0C00
0800
1000
1000
2000
C000
ENDCHAR
STARTCHAR z
ENCODING 122
SWIDTH 500 0
DWIDTH 8 0
BBX 9 9 -1 0
BITMAP
3F80
0100
0200
0400
0800
1000
2000
4000
FE00
ENDCHAR
STARTCHAR braceleft
ENCODING 123
SWIDTH 334 0
DWIDTH 6 0
BBX 6 15 1 -3
BITMAP
0C
10
10
20
20
20
40
80
40
40
40
80
80
80
60
ENDCHAR
STARTCHAR bar
ENCODING 124
SWIDTH 260 0
DWIDTH 3 0
BBX 5 16 -2 -4
BITMAP
08
08
08
10
10
10
20
20
20
20
40
40
40
80
80
80
ENDCHAR
STARTCHAR braceright
ENCODING 125
SWIDTH 334 0
DWIDTH 6 0
BBX 6 15 -2 -3
BITMAP
18
04
04
04
08
08
08
04
08
10
10
10
20
20
C0
ENDCHAR
STARTCHAR asciitilde
ENCODING 126
SWIDTH 584 0
DWIDTH 10 0
BBX 8 2 1 4
BITMAP
71
8E
ENDCHAR
STARTCHAR space
ENCODING 160
SWIDTH 278 0
DWIDTH 5 0
BBX 1 1 0 0
BITMAP
00
ENDCHAR
STARTCHAR exclamdown
ENCODING 161
SWIDTH 333 0
DWIDTH 6 0
BBX 4 12 0 -3
BITMAP
10
10
00
20
20
20
40
40
40
80
80
80
ENDCHAR
STARTCHAR cent
ENCODING 162
SWIDTH 556 0
DWIDTH 9 0
BBX 8 11 0 -1
BITMAP
02
1E
27
49
48
90
90
A2
A4
78
40
ENDCHAR
STARTCHAR sterling
ENCODING 163
SWIDTH 556 0
DWIDTH 9 0
BBX 10 12 -2 0
BITMAP
0780
0840
1040
1000
1000
0800
3F00
1000
1000
2000
7880
8700
ENDCHAR
STARTCHAR currency
ENCODING 164
SWIDTH 556 0
DWIDTH 9 0
BBX 8 7 1 3
BITMAP
41
3E
22
42
44
7C
82
ENDCHAR
STARTCHAR yen
ENCODING 165
SWIDTH 556 0
DWIDTH 9 0
BBX 9 12 0 0
BITMAP
4080
4100
2100
2200
2200
1400
7E00
1000
FE00
2000
2000
2000
ENDCHAR
STARTCHAR brokenbar
ENCODING 166
SWIDTH 260 0
DWIDTH 4 0
BBX 5 16 -1 -4
BITMAP
08
08
08
10
10
10
10
00
00
40
40
40
40
80
80
80
ENDCHAR
STARTCHAR section
ENCODING 167
SWIDTH 556 0
DWIDTH 9 0
BBX 9 15 0 -3
BITMAP
0700
0880
1080
1000
1800
2400
4200
4100
2100
1200
0C00
0400
8400
8800
7000
ENDCHAR
STARTCHAR dieresis
ENCODING 168
SWIDTH 333 0
DWIDTH 5 0
BBX 3 2 2 10
BITMAP
A0
A0
ENDCHAR
STARTCHAR copyright
ENCODING 169
SWIDTH 737 0
DWIDTH 12 0
BBX 13 12 0 0
BITMAP
07C0
1830
2388
4448
4808
9008
9008
9090
9110
8E20
60C0
1F00
ENDCHAR
STARTCHAR ordfeminine
ENCODING 170
SWIDTH 370 0
DWIDTH 6 0
BBX 5 7 0 5
BITMAP
30
48
78
90
78
00
F8
ENDCHAR
STARTCHAR guillemotleft
ENCODING 171
SWIDTH 556 0
DWIDTH 9 0
BBX 6 5 1 3
BITMAP
24
48
90
48
24
ENDCHAR
STARTCHAR logicalnot
ENCODING 172
SWIDTH 584 0
DWIDTH 10 0
BBX 8 5 1 1
BITMAP
FF
01
01
02
02
ENDCHAR
STARTCHAR hyphen
ENCODING 173
SWIDTH 333 0
DWIDTH 5 0
BBX 4 1 0 4
BITMAP
F0
ENDCHAR
STARTCHAR registered
ENCODING 174
SWIDTH 737 0
DWIDTH 12 0
BBX 13 12 0 0
BITMAP
07C0
1830
2008
4788
4448
8848
8F88
9210
9110
9120
60C0
1F00
ENDCHAR
STARTCHAR macron
ENCODING 175
SWIDTH 333 0
DWIDTH 6 0
BBX 5 1 1 10
BITMAP
F8
ENDCHAR
STARTCHAR degree
ENCODING 176
SWIDTH 400 0
DWIDTH 7 0
BBX 5 5 1 7
BITMAP
30
48
88
90
60
ENDCHAR
STARTCHAR plusminus
ENCODING 177
SWIDTH 584 0
DWIDTH 10 0
BBX 10 11 0 0
BITMAP
0200
0200
0200
0400
7FC0
0400
0800
0800
0800
0000
FF00
ENDCHAR
STARTCHAR twosuperior
ENCODING 178
SWIDTH 333 0
DWIDTH 6 0
BBX 6 7 0 5
BITMAP
38
44
04
18
60
80
F8
ENDCHAR
STARTCHAR threesuperior
ENCODING 179
SWIDTH 333 0
DWIDTH 6 0
BBX 6 7 0 5
BITMAP
38
44
04
38
08
88
70
ENDCHAR
STARTCHAR acute
ENCODING 180
SWIDTH 333 0
DWIDTH 6 0
BBX 3 3 2 10
BITMAP
60
40
80
ENDCHAR
STARTCHAR mu
ENCODING 181
SWIDTH 556 0
DWIDTH 9 0
BBX 10 13 -1 -4
BITMAP
1040
1040
1040
2080
2080
2080
4100
4300
7D00
4000
8000
8000
8000
ENDCHAR
STARTCHAR paragraph
ENCODING 182
SWIDTH 537 0
DWIDTH 9 0
BBX 9 15 1 -3
BITMAP
1F80
7900
7900
F200
F200
F200
E400
6400
2400
4800
4800
4800
9000
9000
9000
ENDCHAR
STARTCHAR periodcentered
ENCODING 183
SWIDTH 278 0
DWIDTH 5 0
BBX 1 2 2 5
BITMAP
80
80
ENDCHAR
STARTCHAR cedilla
ENCODING 184
SWIDTH 333 0
DWIDTH 6 0
BBX 4 4 -1 -4
BITMAP
20
20
90
60
ENDCHAR
STARTCHAR onesuperior
ENCODING 185
SWIDTH 333 0
DWIDTH 6 0
BBX 3 7 2 5
BITMAP
20
E0
20
40
40
80
80
ENDCHAR
STARTCHAR ordmasculine
ENCODING 186
SWIDTH 365 0
DWIDTH 6 0
BBX 5 7 1 5
BITMAP
30
48
88
90
60
00
F8
ENDCHAR
STARTCHAR guillemotright
ENCODING 187
SWIDTH 556 0
DWIDTH 9 0
BBX 6 5 2 3
BITMAP
90
48
24
48
90
ENDCHAR
STARTCHAR onequarter
ENCODING 188
SWIDTH 834 0
DWIDTH 14 0
BBX 10 12 3 0
BITMAP
2100
E200
2200
4400
4800
8880
9180
1280
2480
4FC0
4100
8100
ENDCHAR
STARTCHAR onehalf
ENCODING 189
SWIDTH 834 0
DWIDTH 14 0
BBX 11 13 3 0
BITMAP
0080
2100
E100
2200
4400
4400
89C0
9220
2020
20C0
4300
8400
87C0
ENDCHAR
STARTCHAR threequarters
ENCODING 190
SWIDTH 834 0
DWIDTH 14 0
BBX 12 12 1 0
BITMAP
3840
4480
0480
3900
0A00
8A20
7460
04A0
0920
13F0
1040
2040
ENDCHAR
STARTCHAR questiondown
ENCODING 191
SWIDTH 611 0
DWIDTH 10 0
BBX 7 12 0 -3
BITMAP
02
02
00
04
04
08
30
40
82
82
84
78
ENDCHAR
STARTCHAR Agrave
ENCODING 192
SWIDTH 667 0
DWIDTH 11 0
BBX 10 16 -1 0
BITMAP
0300
0100
0080
0000
0180
0280
0280
0480
0840
0840
1040
3FC0
2040
4040
4040
8040
ENDCHAR
STARTCHAR Aacute
ENCODING 193
SWIDTH 667 0
DWIDTH 11 0
BBX 10 16 -1 0
BITMAP
00C0
0080
0100
0000
0180
0280
0280
0480
0840
0840
1040
3FC0
2040
4040
4040
8040
ENDCHAR
STARTCHAR Acircumflex
ENCODING 194
SWIDTH 667 0
DWIDTH 11 0
BBX 10 16 -1 0
BITMAP
0180
0280
0440
0000
0180
0280
0280
0480
0840
0840
1040
3FC0
2040
4040
4040
8040
ENDCHAR
STARTCHAR Atilde
ENCODING 195
SWIDTH 667 0
DWIDTH 11 0
BBX 11 15 -1 0
BITMAP
01A0
02C0
0000
0180
0280
0280
0480
0840
0840
1040
3FC0
2040
4040
4040
8040
ENDCHAR
STARTCHAR Adieresis
ENCODING 196
SWIDTH 667 0
DWIDTH 11 0
BBX 11 15 -1 0
BITMAP
0220
0220
0000
0180
0280
0280
0480
0840
0840
1040
3FC0
2040
4040
4040
8040
ENDCHAR
STARTCHAR Aring
ENCODING 197
SWIDTH 667 0
DWIDTH 11 0
BBX 10 15 -1 0
BITMAP
0180
0240
0240
0180
0280
0280
0480
0840
0840
1040
3FC0
2040
4040
4040
8040
ENDCHAR
STARTCHAR AE
ENCODING 198
SWIDTH 1000 0
DWIDTH 16 0
BBX 16 12 0 0
BITMAP
01FF
0240
0240
0480
0880
08FC
1F00
2100
2100
4200
4200
83F8
ENDCHAR
STARTCHAR Ccedilla
ENCODING 199
SWIDTH 722 0
DWIDTH 12 0
BBX 11 15 1 -3
BITMAP
0780
1840
2020
4020
4000
8000
8000
8000
8040
8080
4300
3C00
0800
2400
1800
ENDCHAR
STARTCHAR Egrave
ENCODING 200
SWIDTH 667 0
DWIDTH 11 0
BBX 11 16 0 0
BITMAP
0600
0200
0100
0000
1FE0
1000
1000
2000
2000
3F80
4000
4000
4000
8000
8000
FF00
ENDCHAR
STARTCHAR Eacute
ENCODING 201
SWIDTH 667 0
DWIDTH 11 0
BBX 11 16 0 0
BITMAP
0180
0100
0200
0000
1FE0
1000
1000
2000
2000
3F80
4000
4000
4000
8000
8000
FF00
ENDCHAR
STARTCHAR Ecircumflex
ENCODING 202
SWIDTH 667 0
DWIDTH 11 0
BBX 11 16 0 0
BITMAP
0180
0280
0440
0000
1FE0
1000
1000
2000
2000
3F80
4000
4000
4000
8000
8000
FF00
ENDCHAR
STARTCHAR Edieresis
ENCODING 203
SWIDTH 667 0
DWIDTH 11 0
BBX 11 15 0 0
BITMAP
0440
0440
0000
1FE0
1000
1000
2000
2000
3F80
4000
4000
4000
8000
8000
FF00
ENDCHAR
STARTCHAR Igrave
ENCODING 204
SWIDTH 278 0
DWIDTH 4 0
BBX 5 16 0 0
BITMAP
30
10
08
00
10
10
10
20
20
20
40
40
40
80
80
80
ENDCHAR
STARTCHAR Iacute
ENCODING 205
SWIDTH 278 0
DWIDTH 4 0
BBX 6 16 0 0
BITMAP
0C
08
10
00
10
10
10
20
20
20
40
40
40
80
80
80
ENDCHAR
STARTCHAR Icircumflex
ENCODING 206
SWIDTH 278 0
DWIDTH 4 0
BBX 6 16 0 0
BITMAP
18
28
44
00
10
10
10
20
20
20
40
40
40
80
80
80
ENDCHAR
STARTCHAR Idieresis
ENCODING 207
SWIDTH 278 0
DWIDTH 4 0
BBX 6 15 0 0
BITMAP
24
24
00
10
10
10
20
20
20
40
40
40
80
80
80
ENDCHAR
STARTCHAR Eth
ENCODING 208
SWIDTH 722 0
DWIDTH 12 0
BBX 11 12 0 0
BITMAP
1F80
1040
1020
2020
2020
F820
4020
4040
4040
8080
8300
FC00
ENDCHAR
STARTCHAR Ntilde
ENCODING 209
SWIDTH 722 0
DWIDTH 12 0
BBX 12 15 0 0
BITMAP
01A0
02C0
0000
1810
1810
1810
2820
2420
2420
4440
4240
4240
8280
8180
8180
ENDCHAR
STARTCHAR Ograve
ENCODING 210
SWIDTH 778 0
DWIDTH 13 0
BBX 11 16 1 0
BITMAP
0600
0300
0100
0000
0780
1840
2020
4020
4020
8020
8020
8040
8040
8080
4300
3C00
ENDCHAR
STARTCHAR Oacute
ENCODING 211
SWIDTH 778 0
DWIDTH 13 0
BBX 11 16 1 0
BITMAP
0180
0100
0200
0000
0780
1840
2020
4020
4020
8020
8020
8040
8040
8080
4300
3C00
ENDCHAR
STARTCHAR Ocircumflex
ENCODING 212
SWIDTH 778 0
DWIDTH 13 0
BBX 11 16 1 0
BITMAP
0180
0280
0440
0000
0780
1840
2020
4020
4020
8020
8020
8040
8040
8080
4300
3C00
ENDCHAR
STARTCHAR Otilde
ENCODING 213
SWIDTH 778 0
DWIDTH 13 0
BBX 11 15 1 0
BITMAP
0340
0580
0000
0780
1840
2020
4020
4020
8020
8020
8040
8040
8080
4300
3C00
ENDCHAR
STARTCHAR Odieresis
ENCODING 214
SWIDTH 778 0
DWIDTH 13 0
BBX 11 15 1 0
BITMAP
0440
0440
0000
0780
1840
2020
4020
4020
8020
8020
8040
8040
8080
4300
3C00
ENDCHAR
STARTCHAR multiply
ENCODING 215
SWIDTH 584 0
DWIDTH 10 0
BBX 9 8 0 0
BITMAP
2080
1100
1200
0C00
1C00
2200
4200
8100
ENDCHAR
STARTCHAR Oslash
ENCODING 216
SWIDTH 778 0
DWIDTH 13 0
BBX 12 12 0 0
BITMAP
03D0
0C20
1050
2090
2110
4210
4410
4820
5020
6040
6180
9E00
ENDCHAR
STARTCHAR Ugrave
ENCODING 217
SWIDTH 722 0
DWIDTH 12 0
BBX 11 16 1 0
BITMAP
0600
0200
0100
0000
2020
2020
2020
4040
4040
4040
8080
8080
8100
8100
4200
3C00
ENDCHAR
STARTCHAR Uacute
ENCODING 218
SWIDTH 722 0
DWIDTH 12 0
BBX 11 16 1 0
BITMAP
0180
0100
0200
0000
2020
2020
2020
4040
4040
4040
8080
8080
8100
8100
4200
3C00
ENDCHAR
STARTCHAR Ucircumflex
ENCODING 219
SWIDTH 722 0
DWIDTH 12 0
BBX 11 16 1 0
BITMAP
0300
0500
0880
0000
2020
2020
2020
4040
4040
4040
8080
8080
8100
8100
4200
3C00
ENDCHAR
STARTCHAR Udieresis
ENCODING 220
SWIDTH 722 0
DWIDTH 12 0
BBX 11 15 1 0
BITMAP
0880
0880
0000
2020
2020
2020
4040
4040
4040
8080
8080
8100
8100
4200
3C00
ENDCHAR
STARTCHAR Yacute
ENCODING 221
SWIDTH 667 0
DWIDTH 11 0
BBX 10 16 2 0
BITMAP
0600
0400
0800
0000
8040
8080
4100
4200
2400
2800
1000
1000
1000
2000
2000
2000
ENDCHAR
STARTCHAR Thorn
ENCODING 222
SWIDTH 667 0
DWIDTH 11 0
BBX 10 12 0 0
BITMAP
1000
1000
1F80
2040
2040
2040
4080
7F00
4000
8000
8000
8000
ENDCHAR
STARTCHAR germandbls
ENCODING 223
SWIDTH 611 0
DWIDTH 10 0
BBX 9 12 1 0
BITMAP
0F00
1080
1080
2080
2100
2600
4100
4100
4100
8200
8400
9800
ENDCHAR
STARTCHAR agrave
ENCODING 224
SWIDTH 556 0
DWIDTH 9 0
BBX 8 13 0 0
BITMAP
0C
04
02
00
1E
21
01
06
3A
42
84
8C
76
ENDCHAR
STARTCHAR aacute
ENCODING 225
SWIDTH 556 0
DWIDTH 9 0
BBX 8 13 0 0
BITMAP
03
02
04
00
1E
21
01
06
3A
42
84
8C
76
ENDCHAR
STARTCHAR acircumflex
ENCODING 226
SWIDTH 556 0
DWIDTH 9 0
BBX 8 13 0 0
BITMAP
06
0A
11
00
1E
21
01
06
3A
42
84
8C
76
ENDCHAR
STARTCHAR atilde
ENCODING 227
SWIDTH 556 0
DWIDTH 9 0
BBX 8 12 0 0
BITMAP
0D
16
00
1E
21
01
06
3A
42
84
8C
76
ENDCHAR
STARTCHAR adieresis
ENCODING 228
SWIDTH 556 0
DWIDTH 9 0
BBX 8 12 0 0
BITMAP
09
09
00
1E
21
01
06
3A
42
84
8C
76
ENDCHAR
STARTCHAR aring
ENCODING 229
SWIDTH 556 0
DWIDTH 9 0
BBX 8 13 0 0
BITMAP
04
0A
0A
04
1E
21
01
06
3A
42
84
8C
76
ENDCHAR
STARTCHAR ae
ENCODING 230
SWIDTH 889 0
DWIDTH 15 0
BBX 14 9 0 0
BITMAP
1E78
2184
0104
0704
3BFC
4200
8608
8A10
71E0
ENDCHAR
STARTCHAR ccedilla
ENCODING 231
SWIDTH 500 0
DWIDTH 8 0
BBX 8 12 0 -3
BITMAP
1E
21
41
40
80
80
82
84
78
10
48
30
ENDCHAR
STARTCHAR egrave
ENCODING 232
SWIDTH 556 0
DWIDTH 9 0
BBX 8 13 0 0
BITMAP
0C
04
02
00
1E
21
41
41
FF
80
82
84
78
ENDCHAR
STARTCHAR eacute
ENCODING 233
SWIDTH 556 0
DWIDTH 9 0
BBX 8 13 0 0
BITMAP
03
02
04
00
1E
21
41
41
FF
80
82
84
78
ENDCHAR
STARTCHAR ecircumflex
ENCODING 234
SWIDTH 556 0
DWIDTH 9 0
BBX 8 13 0 0
BITMAP
06
0A
11
00
1E
21
41
41
FF
80
82
84
78
ENDCHAR
STARTCHAR edieresis
ENCODING 235
SWIDTH 556 0
DWIDTH 9 0
BBX 8 12 0 0
BITMAP
09
09
00
1E
21
41
41
FF
80
82
84
78
ENDCHAR
STARTCHAR igrave
ENCODING 236
SWIDTH 278 0
DWIDTH 4 0
BBX 4 13 0 0
BITMAP
60
20
10
00
20
20
20
40
40
40
80
80
80
ENDCHAR
STARTCHAR iacute
ENCODING 237
SWIDTH 278 0
DWIDTH 4 0
BBX 5 13 0 0
BITMAP
18
10
20
00
20
20
20
40
40
40
80
80
80
ENDCHAR
STARTCHAR icircumflex
ENCODING 238
SWIDTH 278 0
DWIDTH 4 0
BBX 5 13 0 0
BITMAP
30
50
88
00
20
20
20
40
40
40
80
80
80
ENDCHAR
STARTCHAR idieresis
ENCODING 239
SWIDTH 278 0
DWIDTH 4 0
BBX 5 12 0 0
BITMAP
48
48
00
20
20
20
40
40
40
80
80
80
ENDCHAR
STARTCHAR eth
ENCODING 240
SWIDTH 556 0
DWIDTH 9 0
BBX 8 12 0 0
BITMAP
1B
0C
32
1E
21
41
41
81
82
82
84
78
ENDCHAR
STARTCHAR ntilde
ENCODING 241
SWIDTH 556 0
DWIDTH 9 0
BBX 9 12 0 0
BITMAP
0680
0B00
0000
2F00
3080
2080
4100
4100
4100
8200
8200
8200
ENDCHAR
STARTCHAR ograve
ENCODING 242
SWIDTH 556 0
DWIDTH 9 0
BBX 8 13 0 0
BITMAP
18
08
04
00
1E
21
41
41
81
82
82
84
78
ENDCHAR
STARTCHAR oacute
ENCODING 243
SWIDTH 556 0
DWIDTH 9 0
BBX 8 13 0 0
BITMAP
03
02
04
00
1E
21
41
41
81
82
82
84
78
ENDCHAR
STARTCHAR ocircumflex
ENCODING 244
SWIDTH 556 0
DWIDTH 9 0
BBX 8 13 0 0
BITMAP
06
0A
11
00
1E
21
41
41
81
82
82
84
78
ENDCHAR
STARTCHAR otilde
ENCODING 245
SWIDTH 556 0
DWIDTH 9 0
BBX 8 12 0 0
BITMAP
0D
16
00
1E
21
41
41
81
82
82
84
78
ENDCHAR
STARTCHAR odieresis
ENCODING 246
SWIDTH 556 0
DWIDTH 9 0
BBX 8 12 0 0
BITMAP
09
09
00
1E
21
41
41
81
82
82
84
78
ENDCHAR
STARTCHAR divide
ENCODING 247
SWIDTH 584 0
DWIDTH 10 0
BBX 7 9 1 0
BITMAP
08
08
00
00
FE
00
00
20
20
ENDCHAR
STARTCHAR oslash
ENCODING 248
SWIDTH 611 0
DWIDTH 10 0
BBX 10 9 -1 0
BITMAP
0F40
1180
2280
2480
4880
5100
6100
6200
BC00
ENDCHAR
STARTCHAR ugrave
ENCODING 249
SWIDTH 556 0
DWIDTH 9 0
BBX 9 13 0 0
BITMAP
0C00
0400
0200
0000
2080
2080
2080
4100
4100
4100
8200
8600
7A00
ENDCHAR
STARTCHAR uacute
ENCODING 250
SWIDTH 556 0
DWIDTH 9 0
BBX 9 13 0 0
BITMAP
0300
0200
0400
0000
2080
2080
2080
4100
4100
4100
8200
8600
7A00
ENDCHAR
STARTCHAR ucircumflex
ENCODING 251
SWIDTH 556 0
DWIDTH 9 0
BBX 9 13 0 0
BITMAP
0600
0A00
1100
0000
2080
2080
2080
4100
4100
4100
8200
8600
7A00
ENDCHAR
STARTCHAR udieresis
ENCODING 252
SWIDTH 556 0
DWIDTH 9 0
BBX 9 12 0 0
BITMAP
0900
0900
0000
2080
2080
2080
4100
4100
4100
8200
8600
7A00
ENDCHAR
STARTCHAR yacute
ENCODING 253
SWIDTH 500 0
DWIDTH 8 0
BBX 9 17 -1 -4
BITMAP
0300
0200
0400
0000
2080
2080
2100
1100
1200
1200
0C00
0C00
0800
1000
1000
2000
C000
ENDCHAR
STARTCHAR thorn
ENCODING 254
SWIDTH 556 0
DWIDTH 9 0
BBX 9 16 -1 -4
BITMAP
0800
0800
0800
1700
1880
1080
2080
2080
2100
4100
6200
5C00
4000
8000
8000
8000
ENDCHAR
STARTCHAR ydieresis
ENCODING 255
SWIDTH 500 0
DWIDTH 8 0
BBX 9 16 -1 -4
BITMAP
0900
0900
0000
2080
2080
2100
1100
1200
1200
0C00
0C00
0800
1000
1000
2000
C000
ENDCHAR
STARTCHAR Amacron
ENCODING 256
SWIDTH 667 0
DWIDTH 11 0
BBX 10 14 -1 0
BITMAP
0F80
0000
0180
0280
0280
0480
0880
0840
1040
3FC0
2040
4040
4040
8040
ENDCHAR
STARTCHAR amacron
ENCODING 257
SWIDTH 556 0
DWIDTH 9 0
BBX 8 11 0 0
BITMAP
3E
00
1E
21
01
06
3A
42
84
8C
76
ENDCHAR
STARTCHAR Abreve
ENCODING 258
SWIDTH 667 0
DWIDTH 11 0
BBX 10 15 -1 0
BITMAP
0880
0700
0000
0180
0280
0280
0480
0880
0840
1040
3FC0
2040
4040
4040
8040
ENDCHAR
STARTCHAR abreve
ENCODING 259
SWIDTH 556 0
DWIDTH 9 0
BBX 8 12 0 0
BITMAP
22
1C
00
1E
21
01
06
3A
42
84
8C
76
ENDCHAR
STARTCHAR Aogonek
ENCODING 260
SWIDTH 667 0
DWIDTH 11 0
BBX 10 15 -1 -3
BITMAP
0180
0280
0280
0480
0880
0840
1040
3FC0
2040
4040
4040
8440
0800
0900
0E00
ENDCHAR
STARTCHAR aogonek
ENCODING 261
SWIDTH 556 0
DWIDTH 9 0
BBX 8 12 0 -3
BITMAP
1E
21
01
06
3A
42
84
8C
76
20
24
38
ENDCHAR
STARTCHAR Cacute
ENCODING 262
SWIDTH 722 0
DWIDTH 12 0
BBX 11 16 1 0
BITMAP
0300
0200
0400
0000
0780
1840
2020
4020
4000
8000
8000
8000
8040
8080
4300
3C00
ENDCHAR
STARTCHAR cacute
ENCODING 263
SWIDTH 500 0
DWIDTH 8 0
BBX 8 13 0 0
BITMAP
06
04
08
00
1E
21
41
40
80
80
82
84
78
ENDCHAR
STARTCHAR Ccircumflex
ENCODING 264
SWIDTH 722 0
DWIDTH 12 0
BBX 11 16 1 0
BITMAP
0300
0500
0880
0000
0780
1840
2020
4020
4000
8000
8000
8000
8040
8080
4300
3C00
ENDCHAR
STARTCHAR ccircumflex
ENCODING 265
SWIDTH 500 0
DWIDTH 8 0
BBX 8 13 0 0
BITMAP
0C
14
22
00
1E
21
41
40
80
80
82
84
78
ENDCHAR
STARTCHAR Cdotaccent
ENCODING 266
SWIDTH 722 0
DWIDTH 12 0
BBX 11 15 1 0
BITMAP
0200
0200
0000
0780
1840
2020
4020
4000
8000
8000
8000
8040
8080
4300
3C00
ENDCHAR
STARTCHAR cdotaccent
ENCODING 267
SWIDTH 500 0
DWIDTH 8 0
BBX 8 12 0 0
BITMAP
08
08
00
1E
21
41
40
80
80
82
84
78
ENDCHAR
STARTCHAR Ccaron
ENCODING 268
SWIDTH 722 0
DWIDTH 12 0
BBX 11 16 1 0
BITMAP
0880
0500
0600
0000
0780
1840
2020
4020
4000
8000
8000
8000
8040
8080
4300
3C00
ENDCHAR
STARTCHAR ccaron
ENCODING 269
SWIDTH 500 0
DWIDTH 8 0
BBX 8 13 0 0
BITMAP
22
14
18
00
1E
21
41
40
80
80
82
84
78
ENDCHAR
STARTCHAR Dcaron
ENCODING 270
SWIDTH 722 0
DWIDTH 12 0
BBX 11 16 0 0
BITMAP
0880
0500
0600
0000
1F80
1040
1020
2020
2020
2020
4020
4040
4040
8080
8300
FC00
ENDCHAR
STARTCHAR dcaron
ENCODING 271
SWIDTH 750 0
DWIDTH 13 0
BBX 13 12 0 0
BITMAP
0088
0088
0090
1D20
2300
4100
4200
8200
8200
8400
8C00
7400
ENDCHAR
STARTCHAR Dcroat
ENCODING 272
SWIDTH 722 0
DWIDTH 12 0
BBX 11 12 0 0
BITMAP
1F80
1040
1020
2020
2020
F820
4020
4040
4040
8080
8300
FC00
ENDCHAR
STARTCHAR dcroat
ENCODING 273
SWIDTH 556 0
DWIDTH 9 0
BBX 9 12 0 0
BITMAP
0080
0F80
0080
1D00
2300
4100
4200
8200
8200
8400
8C00
7400
ENDCHAR
STARTCHAR Emacron
ENCODING 274
SWIDTH 667 0
DWIDTH 11 0
BBX 11 14 0 0
BITMAP
1F00
0000
1FE0
1000
1000
2000
2000
3F80
4000
4000
4000
8000
8000
FF00
ENDCHAR
STARTCHAR emacron
ENCODING 275
SWIDTH 556 0
DWIDTH 9 0
BBX 8 11 0 0
BITMAP
3E
00
1E
21
41
41
FF
80
82
84
78
ENDCHAR
STARTCHAR Ebreve
ENCODING 276
SWIDTH 667 0
DWIDTH 11 0
BBX 11 15 0 0
BITMAP
1100
0E00
0000
1FE0
1000
1000
2000
2000
3F80
4000
4000
4000
8000
8000
FF00
ENDCHAR
STARTCHAR ebreve
ENCODING 277
SWIDTH 556 0
DWIDTH 9 0
BBX 8 12 0 0
BITMAP
22
1C
00
1E
21
41
41
FF
80
82
84
78
ENDCHAR
STARTCHAR Edotaccent
ENCODING 278
SWIDTH 667 0
DWIDTH 11 0
BBX 11 15 0 0
BITMAP
0400
0400
0000
1FE0
1000
1000
2000
2000
3F80
4000
4000
4000
8000
8000
FF00
ENDCHAR
STARTCHAR edotaccent
ENCODING 279
SWIDTH 556 0
DWIDTH 9 0
BBX 8 12 0 0
BITMAP
08
08
00
1E
21
41
41
FF
80
82
84
78
ENDCHAR
STARTCHAR Eogonek
ENCODING 280
SWIDTH 667 0
DWIDTH 11 0
BBX 11 15 0 -3
BITMAP
1FE0
1000
1000
2000
2000
3F80
4000
4000
4000
8000
8000
FF00
1000
1200
1C00
ENDCHAR
STARTCHAR eogonek
ENCODING 281
SWIDTH 556 0
DWIDTH 9 0
BBX 8 12 0 -3
BITMAP
1E
21
41
41
FF
80
82
84
78
20
24
38
ENDCHAR
STARTCHAR Ecaron
ENCODING 282
SWIDTH 667 0
DWIDTH 11 0
BBX 11 16 0 0
BITMAP
0880
0500
0600
0000
1FE0
1000
1000
2000
2000
3F80
4000
4000
4000
8000
8000
FF00
ENDCHAR
STARTCHAR ecaron
ENCODING 283
SWIDTH 556 0
DWIDTH 9 0
BBX 8 13 0 0
BITMAP
22
14
18
00
1E
21
41
41
FF
80
82
84
78
ENDCHAR
STARTCHAR Gcircumflex
ENCODING 284
SWIDTH 778 0
DWIDTH 13 0
BBX 11 16 1 0
BITMAP
0300
0500
0880
0000
0780
1840
2020
4020
4000
8000
83E0
8020
8040
8040
4180
3E80
ENDCHAR
STARTCHAR gcircumflex
ENCODING 285
SWIDTH 556 0
DWIDTH 9 0
BBX 10 17 -2 -4
BITMAP
0300
0500
0880
0000
0740
08C0
1040
1080
2080
2080
2100
2300
1D00
0200
8200
8400
7800
ENDCHAR
STARTCHAR Gbreve
ENCODING 286
SWIDTH 778 0
DWIDTH 13 0
BBX 11 15 1 0
BITMAP
0880
0700
0000
0780
1840
2020
4020
4000
8000
83E0
8020
8040
8040
4180
3E80
ENDCHAR
STARTCHAR gbreve
ENCODING 287
SWIDTH 556 0
DWIDTH 9 0
BBX 10 16 -2 -4
BITMAP
0880
0700
0000
0740
08C0
1040
1080
2080
2080
2100
2300
1D00
0200
8200
8400
7800
ENDCHAR
STARTCHAR Gdotaccent
ENCODING 288
SWIDTH 778 0
DWIDTH 13 0
BBX 11 15 1 0
BITMAP
0200
0200
0000
0780
1840
2020
4020
4000
8000
83E0
8020
8040
8040
4180
3E80
ENDCHAR
STARTCHAR gdotaccent
ENCODING 289
SWIDTH 556 0
DWIDTH 9 0
BBX 10 16 -2 -4
BITMAP
0200
0200
0000
0740
08C0
1040
1080
2080
2080
2100
2300
1D00
0200
8200
8400
7800
ENDCHAR
STARTCHAR Gcommaaccent
ENCODING 290
SWIDTH 778 0
DWIDTH 13 0
BBX 11 17 1 -5
BITMAP
0780
1840
2020
4020
4000
8000
83E0
8020
8040
8040
4180
3E80
0000
0400
0400
0800
1000
ENDCHAR
STARTCHAR gcommaaccent
ENCODING 291
SWIDTH 556 0
DWIDTH 9 0
BBX 10 18 -2 -4
BITMAP
0100
0200
0400
0400
0000
0740
08C0
1040
1080
2080
2080
2100
2300
1D00
0200
8200
8400
7800
ENDCHAR
STARTCHAR Hcircumflex
ENCODING 292
SWIDTH 722 0
DWIDTH 12 0
BBX 12 16 0 0
BITMAP
0300
0500
0880
0000
1010
1010
1010
2020
2020
3FE0
4040
4040
4040
8080
8080
8080
ENDCHAR
STARTCHAR hcircumflex
ENCODING 293
SWIDTH 556 0
DWIDTH 9 0
BBX 9 16 0 0
BITMAP
0C00
1400
2200
0000
1000
1000
1000
2F00
3080
2080
4100
4100
4100
8200
8200
8200
ENDCHAR
STARTCHAR Hbar
ENCODING 294
SWIDTH 722 0
DWIDTH 12 0
BBX 12 12 0 0
BITMAP
1010
1010
FFF0
2020
2020
3FE0
4040
4040
4040
8080
8080
8080
ENDCHAR
STARTCHAR hbar
ENCODING 295
SWIDTH 556 0
DWIDTH 9 0
BBX 9 12 0 0
BITMAP
1000
F000
1000
2F00
3080
2080
4100
4100
4100
8200
8200
8200
ENDCHAR
STARTCHAR Itilde
ENCODING 296
SWIDTH 278 0
DWIDTH 4 0
BBX 6 15 0 0
BITMAP
34
58
00
10
10
10
20
20
20
40
40
40
80
80
80
ENDCHAR
STARTCHAR itilde
ENCODING 297
SWIDTH 278 0
DWIDTH 4 0
BBX 5 12 0 0
BITMAP
68
B0
00
20
20
20
40
40
40
80
80
80
ENDCHAR
STARTCHAR Imacron
ENCODING 298
SWIDTH 278 0
DWIDTH 4 0
BBX 5 14 0 0
BITMAP
F8
00
10
10
10
20
20
20
40
40
40
80
80
80
ENDCHAR
STARTCHAR imacron
ENCODING 299
SWIDTH 278 0
DWIDTH 4 0
BBX 5 11 0 0
BITMAP
F8
00
20
20
20
40
40
40
80
80
80
ENDCHAR
STARTCHAR Ibreve
ENCODING 300
SWIDTH 278 0
DWIDTH 4 0
BBX 5 15 0 0
BITMAP
88
70
00
10
10
10
20
20
20
40
40
40
80
80
80
ENDCHAR
STARTCHAR ibreve
ENCODING 301
SWIDTH 278 0
DWIDTH 4 0
BBX 5 12 0 0
BITMAP
88
70
00
20
20
20
40
40
40
80
80
80
ENDCHAR
STARTCHAR Iogonek
ENCODING 302
SWIDTH 278 0
DWIDTH 4 0
BBX 4 15 0 -3
BITMAP
10
10
10
20
20
20
40
40
40
80
80
C0
80
90
E0
ENDCHAR
STARTCHAR iogonek
ENCODING 303
SWIDTH 222 0
DWIDTH 3 0
BBX 4 15 0 -3
BITMAP
10
10
00
20
20
20
40
40
40
80
80
C0
80
90
E0
ENDCHAR
STARTCHAR Idotaccent
ENCODING 304
SWIDTH 278 0
DWIDTH 4 0
BBX 4 15 0 0
BITMAP
20
20
00
10
10
10
20
20
20
40
40
40
80
80
80
ENDCHAR
STARTCHAR dotlessi
ENCODING 305
SWIDTH 278 0
DWIDTH 4 0
BBX 3 9 0 0
BITMAP
20
20
20
40
40
40
80
80
80
ENDCHAR
STARTCHAR IJ
ENCODING 306
SWIDTH 764 0
DWIDTH 12 0
BBX 12 12 0 0
BITMAP
1010
1010
1010
2020
2020
2020
4040
4040
4840
8880
8880
8700
ENDCHAR
STARTCHAR ij
ENCODING 307
SWIDTH 433 0
DWIDTH 7 0
BBX 7 16 0 -4
BITMAP
12
12
00
24
24
24
48
48
48
90
90
90
20
20
20
C0
ENDCHAR
STARTCHAR Jcircumflex
ENCODING 308
SWIDTH 500 0
DWIDTH 8 0
BBX 9 16 0 0
BITMAP
0300
0500
0880
0000
0100
0100
0100
0200
0200
0200
0400
0400
8400
8800
8800
7000
ENDCHAR
STARTCHAR jcircumflex
ENCODING 309
SWIDTH 222 0
DWIDTH 4 0
BBX 7 17 -3 -4
BITMAP
0C
14
22
00
04
04
04
08
08
08
10
10
10
20
20
20
C0
ENDCHAR
STARTCHAR Kcommaaccent
ENCODING 310
SWIDTH 667 0
DWIDTH 11 0
BBX 11 17 0 -5
BITMAP
1020
1040
1180
2200
2400
3800
6400
4400
4200
8100
8100
8080
0000
0800
0800
1000
2000
ENDCHAR
STARTCHAR kcommaaccent
ENCODING 311
SWIDTH 500 0
DWIDTH 8 0
BBX 8 17 0 -5
BITMAP
10
10
10
21
22
24
58
70
48
88
84
82
00
10
10
20
40
ENDCHAR
STARTCHAR kgreenlandic
ENCODING 312
SWIDTH 500 0
DWIDTH 8 0
BBX 8 9 0 0
BITMAP
21
22
24
58
70
48
88
84
82
ENDCHAR
STARTCHAR Lacute
ENCODING 313
SWIDTH 556 0
DWIDTH 9 0
BBX 7 16 0 0
BITMAP
0C
08
10
00
10
10
10
20
20
20
40
40
40
80
80
FE
ENDCHAR
STARTCHAR lacute
ENCODING 314
SWIDTH 222 0
DWIDTH 4 0
BBX 5 16 0 0
BITMAP
18
10
20
00
10
10
10
20
20
20
40
40
40
80
80
80
ENDCHAR
STARTCHAR Lcommaaccent
ENCODING 315
SWIDTH 556 0
DWIDTH 9 0
BBX 7 17 0 -5
BITMAP
10
10
10
20
20
20
40
40
40
80
80
FE
00
10
10
20
40
ENDCHAR
STARTCHAR lcommaaccent
ENCODING 316
SWIDTH 222 0
DWIDTH 4 0
BBX 5 17 -1 -5
BITMAP
08
08
08
10
10
10
20
20
20
40
40
40
00
20
20
40
80
ENDCHAR
STARTCHAR Lcaron
ENCODING 317
SWIDTH 750 0
DWIDTH 13 0
BBX 13 12 0 0
BITMAP
1008
1008
1010
2020
2000
2000
4000
4000
4000
8000
8000
FE00
ENDCHAR
STARTCHAR lcaron
ENCODING 318
SWIDTH 433 0
DWIDTH 8 0
BBX 8 12 0 0
BITMAP
11
11
12
24
20
20
40
40
40
80
80
80
ENDCHAR
STARTCHAR Ldot
ENCODING 319
SWIDTH 806 0
DWIDTH 14 0
BBX 12 12 0 0
BITMAP
1000
1000
1000
2000
2000
2010
4010
4000
4000
8000
8000
FE00
ENDCHAR
STARTCHAR ldot
ENCODING 320
SWIDTH 489 0
DWIDTH 9 0
BBX 7 12 0 0
BITMAP
10
10
10
20
20
22
42
40
40
80
80
80
ENDCHAR
STARTCHAR Lslash
ENCODING 321
SWIDTH 556 0
DWIDTH 9 0
BBX 8 12 -1 0
BITMAP
08
08
08
14
18
30
60
A0
20
40
40
7F
ENDCHAR
STARTCHAR lslash
ENCODING 322
SWIDTH 222 0
DWIDTH 4 0
BBX 4 12 0 0
BITMAP
10
10
10
20
30
20
C0
40
40
80
80
80
ENDCHAR
STARTCHAR Nacute
ENCODING 323
SWIDTH 722 0
DWIDTH 12 0
BBX 12 16 0 0
BITMAP
0300
0200
0400
0000
1810
1810
1810
2820
2420
2420
4440
4240
4240
8280
8180
8180
ENDCHAR
STARTCHAR nacute
ENCODING 324
SWIDTH 556 0
DWIDTH 9 0
BBX 9 13 0 0
BITMAP
0600
0400
0800
0000
2F00
3080
2080
4100
4100
4100
8200
8200
8200
ENDCHAR
STARTCHAR Ncommaaccent
ENCODING 325
SWIDTH 722 0
DWIDTH 12 0
BBX 12 17 0 -5
BITMAP
1810
1810
1810
2820
2420
2420
4440
4240
4240
8280
8180
8180
0000
0200
0200
0400
0800
ENDCHAR
STARTCHAR ncommaaccent
ENCODING 326
SWIDTH 556 0
DWIDTH 9 0
BBX 9 14 0 -5
BITMAP
2F00
3080
2080
4100
4100
4100
8200
8200
8200
0000
0800
0800
1000
2000
ENDCHAR
STARTCHAR Ncaron
ENCODING 327
SWIDTH 722 0
DWIDTH 12 0
BBX 12 16 0 0
BITMAP
0880
0500
0600
0000
1810
1810
1810
2820
2420
2420
4440
4240
4240
8280
8180
8180
ENDCHAR
STARTCHAR ncaron
ENCODING 328
SWIDTH 556 0
DWIDTH 9 0
BBX 9 13 0 0
BITMAP
1100
0A00
0C00
0000
2F00
3080
2080
4100
4100
4100
8200
8200
8200
ENDCHAR
STARTCHAR napostrophe
ENCODING 329
SWIDTH 767 0
DWIDTH 13 0
BBX 12 12 1 0
BITMAP
2000
2000
4000
85E0
0610
0410
0820
0820
0820
1040
1040
1040
ENDCHAR
STARTCHAR Eng
ENCODING 330
SWIDTH 722 0
DWIDTH 12 0
BBX 12 16 0 -4
BITMAP
1810
1810
1810
2820
2420
2420
4440
4240
4240
8280
8180
8180
0100
0100
0100
0600
ENDCHAR
STARTCHAR eng
ENCODING 331
SWIDTH 556 0
DWIDTH 9 0
BBX 9 13 0 -4
BITMAP
2F00
3080
2080
4100
4100
4100
8200
8200
8200
0400
0400
0400
1800
ENDCHAR
STARTCHAR Omacron
ENCODING 332
SWIDTH 778 0
DWIDTH 13 0
BBX 11 14 1 0
BITMAP
0F80
0000
0780
1840
2020
4020
4020
8020
8020
8040
8040
8080
4300
3C00
ENDCHAR
STARTCHAR omacron
ENCODING 333
SWIDTH 556 0
DWIDTH 9 0
BBX 8 11 0 0
BITMAP
3E
00
1E
21
41
41
81
82
82
84
78
ENDCHAR
STARTCHAR Obreve
ENCODING 334
SWIDTH 778 0
DWIDTH 13 0
BBX 11 15 1 0
BITMAP
0880
0700
0000
0780
1840
2020
4020
4020
8020
8020
8040
8040
8080
4300
3C00
ENDCHAR
STARTCHAR obreve
ENCODING 335
SWIDTH 556 0
DWIDTH 9 0
BBX 8 12 0 0
BITMAP
22
1C
00
1E
21
41
41
81
82
82
84
78
ENDCHAR
STARTCHAR Ohungarumlaut
ENCODING 336
SWIDTH 778 0
DWIDTH 13 0
BBX 11 17 1 0
BITMAP
0480
0D80
0900
1200
0000
0780
1840
2020
4020
4020
8020
8020
8040
8040
8080
4300
3C00
ENDCHAR
STARTCHAR ohungarumlaut
ENCODING 337
SWIDTH 556 0
DWIDTH 9 0
BBX 8 14 0 0
BITMAP
09
1B
12
24
00
1E
21
41
41
81
82
82
84
78
ENDCHAR
STARTCHAR OE
ENCODING 338
SWIDTH 1000 0
DWIDTH 16 0
BBX 16 12 0 0
BITMAP
0E7F
11C0
20C0
4080
4080
80FC
8100
8100
8100
8200
4600
3BF8
ENDCHAR
STARTCHAR oe
ENCODING 339
SWIDTH 944 0
DWIDTH 16 0
BBX 14 9 1 0
BITMAP
0C78
3384
4104
4104
81FC
8200
8208
4610
39E0
ENDCHAR
STARTCHAR Racute
ENCODING 340
SWIDTH 722 0
DWIDTH 12 0
BBX 11 16 0 0
BITMAP
0300
0200
0400
0000
1FC0
1020
1020
2020
2040
3F80
4040
4040
4040
8080
8080
8080
ENDCHAR
STARTCHAR racute
ENCODING 341
SWIDTH 333 0
DWIDTH 5 0
BBX 6 13 0 0
BITMAP
0C
08
10
00
2C
30
20
40
40
40
80
80
80
ENDCHAR
STARTCHAR Rcommaaccent
ENCODING 342
SWIDTH 722 0
DWIDTH 12 0
BBX 11 17 0 -5
BITMAP
1FC0
1020
1020
2020
2040
3F80
4040
4040
4040
8080
8080
8080
0000
0400
0400
0800
1000
ENDCHAR
STARTCHAR rcommaaccent
ENCODING 343
SWIDTH 333 0
DWIDTH 5 0
BBX 7 14 -1 -5
BITMAP
16
18
10
20
20
20
40
40
40
00
20
20
40
80
ENDCHAR
STARTCHAR Rcaron
ENCODING 344
SWIDTH 722 0
DWIDTH 12 0
BBX 11 16 0 0
BITMAP
0880
0500
0600
0000
1FC0
1020
1020
2020
2040
3F80
4040
4040
4040
8080
8080
8080
ENDCHAR
STARTCHAR rcaron
ENCODING 345
SWIDTH 333 0
DWIDTH 5 0
BBX 6 13 0 0
BITMAP
44
28
30
00
2C
30
20
40
40
40
80
80
80
ENDCHAR
STARTCHAR Sacute
ENCODING 346
SWIDTH 667 0
DWIDTH 11 0
BBX 11 16 0 0
BITMAP
0300
0200
0400
0000
0780
1840
2020
2020
2000
1800
0700
0080
8080
8080
4100
3E00
ENDCHAR
STARTCHAR sacute
ENCODING 347
SWIDTH 500 0
DWIDTH 8 0
BBX 8 13 0 0
BITMAP
06
04
08
00
1E
21
21
30
0C
02
82
84
78
ENDCHAR
STARTCHAR Scircumflex
ENCODING 348
SWIDTH 667 0
DWIDTH 11 0
BBX 11 16 0 0
BITMAP
0300
0500
0880
0000
0780
1840
2020
2020
2000
1800
0700
0080
8080
8080
4100
3E00
ENDCHAR
STARTCHAR scircumflex
ENCODING 349
SWIDTH 500 0
DWIDTH 8 0
BBX 8 13 0 0
BITMAP
0C
14
22
00
1E
21
21
30
0C
02
82
84
78
ENDCHAR
STARTCHAR Scedilla
ENCODING 350
SWIDTH 667 0
DWIDTH 11 0
BBX 11 16 0 -4
BITMAP
0780
1840
2020
2020
2000
1800
0700
0080
8080
8080
4100
3E00
0400
0400
1200
0C00
ENDCHAR
STARTCHAR scedilla
ENCODING 351
SWIDTH 500 0
DWIDTH 8 0
BBX 8 13 0 -4
BITMAP
1E
21
21
30
0C
02
82
84
78
10
10
48
30
ENDCHAR
STARTCHAR Scaron
ENCODING 352
SWIDTH 667 0
DWIDTH 11 0
BBX 11 13 0 0
BITMAP
0440
0280
0300
0780
1840
2020
2000
1F00
0080
8080
8080
4100
3E00
ENDCHAR
STARTCHAR scaron
ENCODING 353
SWIDTH 500 0
DWIDTH 8 0
BBX 8 13 0 0
BITMAP
11
0A
0C
00
1E
21
21
30
0C
02
82
84
78
ENDCHAR
STARTCHAR Tcommaaccent
ENCODING 354
SWIDTH 611 0
DWIDTH 10 0
BBX 9 16 2 -4
BITMAP
FF80
0800
0800
1000
1000
1000
2000
2000
2000
4000
4000
4000
2000
2000
9000
6000
ENDCHAR
STARTCHAR tcommaaccent
ENCODING 355
SWIDTH 278 0
DWIDTH 5 0
BBX 6 15 -1 -4
BITMAP
08
08
3C
10
10
20
20
20
40
40
30
20
20
90
60
ENDCHAR
STARTCHAR Tcaron
ENCODING 356
SWIDTH 611 0
DWIDTH 10 0
BBX 9 16 2 0
BITMAP
2200
1400
1800
0000
FF80
0800
0800
1000
1000
1000
2000
2000
2000
4000
4000
4000
ENDCHAR
STARTCHAR tcaron
ENCODING 357
SWIDTH 486 0
DWIDTH 9 0
BBX 9 12 0 0
BITMAP
0080
1080
1100
7A00
2000
2000
4000
4000
4000
8000
8000
6000
ENDCHAR
STARTCHAR Tbar
ENCODING 358
SWIDTH 611 0
DWIDTH 10 0
BBX 9 12 2 0
BITMAP
FF80
0800
0800
1000
1000
1E00
2000
2000
2000
4000
4000
4000
ENDCHAR
STARTCHAR tbar
ENCODING 359
SWIDTH 278 0
DWIDTH 5 0
BBX 5 11 0 0
BITMAP
10
10
78
20
20
78
40
40
80
80
60
ENDCHAR
STARTCHAR Utilde
ENCODING 360
SWIDTH 722 0
DWIDTH 12 0
BBX 11 15 1 0
BITMAP
0680
0B00
0000
2020
2020
2020
4040
4040
4040
8080
8080
8100
8100
4200
3C00
ENDCHAR
STARTCHAR utilde
ENCODING 361
SWIDTH 556 0
DWIDTH 9 0
BBX 9 12 0 0
BITMAP
0D00
1600
0000
2080
2080
2080
4100
4100
4100
8200
8600
7A00
ENDCHAR
STARTCHAR Umacron
ENCODING 362
SWIDTH 722 0
DWIDTH 12 0
BBX 11 14 1 0
BITMAP
0F80
0000
2020
2020
2020
4040
4040
4040
8080
8080
8100
8100
4200
3C00
ENDCHAR
STARTCHAR umacron
ENCODING 363
SWIDTH 556 0
DWIDTH 9 0
BBX 9 11 0 0
BITMAP
1F00
0000
2080
2080
2080
4100
4100
4100
8200
8600
7A00
ENDCHAR
STARTCHAR Ubreve
ENCODING 364
SWIDTH 722 0
DWIDTH 12 0
BBX 11 15 1 0
BITMAP
0880
0700
0000
2020
2020
2020
4040
4040
4040
8080
8080
8100
8100
4200
3C00
ENDCHAR
STARTCHAR ubreve
ENCODING 365
SWIDTH 556 0
DWIDTH 9 0
BBX 9 12 0 0
BITMAP
1100
0E00
0000
2080
2080
2080
4100
4100
4100
8200
8600
7A00
ENDCHAR
STARTCHAR Uring
ENCODING 366
SWIDTH 722 0
DWIDTH 12 0
BBX 11 17 1 0
BITMAP
0200
0500
0500
0200
0000
2020
2020
2020
4040
4040
4040
8080
8080
8100
8100
4200
3C00
ENDCHAR
STARTCHAR uring
ENCODING 367
SWIDTH 556 0
DWIDTH 9 0
BBX 9 14 0 0
BITMAP
0400
0A00
0A00
0400
0000
2080
2080
2080
4100
4100
4100
8200
8600
7A00
ENDCHAR
STARTCHAR Uhungarumlaut
ENCODING 368
SWIDTH 722 0
DWIDTH 12 0
BBX 11 17 1 0
BITMAP
0480
0D80
0900
1200
0000
2020
2020
2020
4040
4040
4040
8080
8080
8100
8100
4200
3C00
ENDCHAR
STARTCHAR uhungarumlaut
ENCODING 369
SWIDTH 556 0
DWIDTH 9 0
BBX 9 14 0 0
BITMAP
0480
0D80
0900
1200
0000
2080
2080
2080
4100
4100
4100
8200
8600
7A00
ENDCHAR
STARTCHAR Uogonek
ENCODING 370
SWIDTH 722 0
DWIDTH 12 0
BBX 11 15 1 -3
BITMAP
2020
2020
2020
4040
4040
4040
8080
8080
8100
8100
4200
3C00
1000
1200
1C00
ENDCHAR
STARTCHAR uogonek
ENCODING 371
SWIDTH 556 0
DWIDTH 9 0
BBX 9 12 0 -3
BITMAP
2080
2080
2080
4100
4100
4100
8200
8600
7A00
1000
1200
1C00
ENDCHAR
STARTCHAR Wcircumflex
ENCODING 372
SWIDTH 944 0
DWIDTH 16 0
BBX 15 16 2 0
BITMAP
0180
0280
0440
0000
8102
8304
8304
8508
8508
8910
4890
50A0
50A0
60C0
60C0
4080
ENDCHAR
STARTCHAR wcircumflex
ENCODING 373
SWIDTH 722 0
DWIDTH 12 0
BBX 11 13 1 0
BITMAP
0600
0A00
1100
0000
8420
8420
8440
CE40
4A80
5280
5300
2200
2200
ENDCHAR
STARTCHAR Ycircumflex
ENCODING 374
SWIDTH 667 0
DWIDTH 11 0
BBX 10 16 2 0
BITMAP
0C00
1400
2200
0000
8040
8080
4100
4200
2400
2800
1000
1000
1000
2000
2000
2000
ENDCHAR
STARTCHAR ycircumflex
ENCODING 375
SWIDTH 500 0
DWIDTH 8 0
BBX 9 17 -1 -4
BITMAP
0600
0A00
1100
0000
2080
2080
2100
1100
1200
1200
0C00
0C00
0800
1000
1000
2000
C000
ENDCHAR
STARTCHAR Ydieresis
ENCODING 376
SWIDTH 667 0
DWIDTH 11 0
BBX 10 13 2 0
BITMAP
1400
1400
0000
8040
8080
4100
4200
2400
1800
1000
2000
2000
2000
ENDCHAR
STARTCHAR Zacute
ENCODING 377
SWIDTH 611 0
DWIDTH 10 0
BBX 12 16 -1 0
BITMAP
00C0
0080
0100
0000
1FF0
0020
0040
0080
0100
0200
0400
0800
1000
2000
4000
FF80
ENDCHAR
STARTCHAR zacute
ENCODING 378
SWIDTH 500 0
DWIDTH 8 0
BBX 9 13 -1 0
BITMAP
0300
0200
0400
0000
3F80
0100
0200
0400
0800
1000
2000
4000
FE00
ENDCHAR
STARTCHAR Zdotaccent
ENCODING 379
SWIDTH 611 0
DWIDTH 10 0
BBX 12 15 -1 0
BITMAP
0100
0100
0000
1FF0
0020
0040
0080
0100
0200
0400
0800
1000
2000
4000
FF80
ENDCHAR
STARTCHAR zdotaccent
ENCODING 380
SWIDTH 500 0
DWIDTH 8 0
BBX 9 12 -1 0
BITMAP
0400
0400
0000
3F80
0100
0200
0400
0800
1000
2000
4000
FE00
ENDCHAR
STARTCHAR Zcaron
ENCODING 381
SWIDTH 611 0
DWIDTH 10 0
BBX 12 13 -1 0
BITMAP
0440
0280
0100
1FF0
0020
0040
0180
0200
0400
1800
2000
4000
FF80
ENDCHAR
STARTCHAR zcaron
ENCODING 382
SWIDTH 500 0
DWIDTH 8 0
BBX 9 13 -1 0
BITMAP
1100
0A00
0400
0000
3F80
0100
0200
0400
0800
1000
2000
4000
FE00
ENDCHAR
STARTCHAR uni0186
ENCODING 390
SWIDTH 722 0
DWIDTH 12 0
BBX 11 12 1 0
BITMAP
0780
1840
2020
4020
0020
0020
0020
0040
8040
8080
4300
3C00
ENDCHAR
STARTCHAR uni0189
ENCODING 393
SWIDTH 722 0
DWIDTH 12 0
BBX 11 12 0 0
BITMAP
1F80
1040
1020
2020
2020
F820
4020
4040
4040
8080
8300
FC00
ENDCHAR
STARTCHAR uni018E
ENCODING 398
SWIDTH 667 0
DWIDTH 11 0
BBX 11 12 0 0
BITMAP
1FE0
0020
0020
0040
0040
0040
3F80
0080
0080
0100
0100
FF00
ENDCHAR
STARTCHAR florin
ENCODING 402
SWIDTH 556 0
DWIDTH 9 0
BBX 11 15 -2 -3
BITMAP
0060
0080
0080
0100
0FC0
0200
0200
0400
0400
0800
0800
1000
1000
2000
C000
ENDCHAR
STARTCHAR uni0197
ENCODING 407
SWIDTH 278 0
DWIDTH 4 0
BBX 4 12 0 0
BITMAP
10
10
10
20
20
F0
40
40
40
80
80
80
ENDCHAR
STARTCHAR uni019A
ENCODING 410
SWIDTH 222 0
DWIDTH 4 0
BBX 4 12 0 0
BITMAP
10
10
10
20
20
F0
40
40
40
80
80
80
ENDCHAR
STARTCHAR uni019D
ENCODING 413
SWIDTH 722 0
DWIDTH 12 0
BBX 15 16 -3 -4
BITMAP
0302
0302
0302
0504
0484
0484
0888
0848
0848
1010
1030
1030
2000
2000
2000
C000
ENDCHAR
STARTCHAR uni019F
ENCODING 415
SWIDTH 778 0
DWIDTH 13 0
BBX 11 12 1 0
BITMAP
0780
1840
2020
4020
4020
FFE0
8020
8040
8040
8080
4300
3C00
ENDCHAR
STARTCHAR Ohorn
ENCODING 416
SWIDTH 778 0
DWIDTH 13 0
BBX 13 12 1 0
BITMAP
0788
1848
2030
4020
4020
8020
8020
8040
8040
8080
4300
3C00
ENDCHAR
STARTCHAR ohorn
ENCODING 417
SWIDTH 556 0
DWIDTH 9 0
BBX 11 9 0 0
BITMAP
1E20
2120
4140
4180
8100
8200
8200
8400
7800
ENDCHAR
STARTCHAR Uhorn
ENCODING 431
SWIDTH 722 0
DWIDTH 12 0
BBX 13 12 1 0
BITMAP
2028
2028
2030
4060
4040
4040
8080
8080
8100
8100
4200
3C00
ENDCHAR
STARTCHAR uhorn
ENCODING 432
SWIDTH 556 0
DWIDTH 9 0
BBX 11 9 0 0
BITMAP
20A0
20A0
20C0
4180
4100
4100
8200
8600
7A00
ENDCHAR
STARTCHAR uni01B5
ENCODING 437
SWIDTH 611 0
DWIDTH 10 0
BBX 12 12 -1 0
BITMAP
1FF0
0020
0040
0080
0100
0F00
0400
0800
1000
2000
4000
FF80
ENDCHAR
STARTCHAR uni01B6
ENCODING 438
SWIDTH 500 0
DWIDTH 8 0
BBX 9 9 -1 0
BITMAP
3F80
0100
0200
0400
1E00
1000
2000
4000
FE00
ENDCHAR
STARTCHAR uni01BB
ENCODING 443
SWIDTH 556 0
DWIDTH 9 0
BBX 9 12 -1 0
BITMAP
0E00
1100
2080
0080
0080
FF80
0600
1800
2000
4000
8000
FF00
ENDCHAR
STARTCHAR uni01BC
ENCODING 444
SWIDTH 556 0
DWIDTH 9 0
BBX 9 12 0 0
BITMAP
0F80
1000
1000
2000
3C00
4200
0100
0100
0100
8200
8400
7800
ENDCHAR
STARTCHAR uni01C0
ENCODING 448
SWIDTH 260 0
DWIDTH 3 0
BBX 5 16 -2 -4
BITMAP
08
08
08
10
10
10
20
20
20
20
40
40
40
80
80
80
ENDCHAR
STARTCHAR uni01C2
ENCODING 450
SWIDTH 584 0
DWIDTH 10 0
BBX 9 16 0 -4
BITMAP
0200
0200
0200
0400
0400
0400
7F80
0800
0800
FF00
1000
1000
1000
2000
2000
2000
ENDCHAR
STARTCHAR uni01C3
ENCODING 451
SWIDTH 278 0
DWIDTH 5 0
BBX 4 12 1 0
BITMAP
10
10
10
20
20
20
40
40
40
00
80
80
ENDCHAR
STARTCHAR uni01CD
ENCODING 461
SWIDTH 667 0
DWIDTH 11 0
BBX 10 16 -1 0
BITMAP
0440
0280
0300
0000
0180
0280
0280
0480
0880
0840
1040
3FC0
2040
4040
4040
8040
ENDCHAR
STARTCHAR uni01CE
ENCODING 462
SWIDTH 556 0
DWIDTH 9 0
BBX 8 13 0 0
BITMAP
11
0A
0C
00
1E
21
01
06
3A
42
84
8C
76
ENDCHAR
STARTCHAR uni01CF
ENCODING 463
SWIDTH 278 0
DWIDTH 4 0
BBX 6 16 0 0
BITMAP
44
28
30
00
10
10
10
20
20
20
40
40
40
80
80
80
ENDCHAR
STARTCHAR uni01D0
ENCODING 464
SWIDTH 278 0
DWIDTH 4 0
BBX 5 13 0 0
BITMAP
88
50
60
00
20
20
20
40
40
40
80
80
80
ENDCHAR
STARTCHAR uni01D1
ENCODING 465
SWIDTH 778 0
DWIDTH 13 0
BBX 11 16 1 0
BITMAP
0880
0500
0600
0000
0780
1840
2020
4020
4020
8020
8020
8040
8040
8080
4300
3C00
ENDCHAR
STARTCHAR uni01D2
ENCODING 466
SWIDTH 556 0
DWIDTH 9 0
BBX 8 13 0 0
BITMAP
22
14
18
00
1E
21
41
41
81
82
82
84
78
ENDCHAR
STARTCHAR uni01D3
ENCODING 467
SWIDTH 722 0
DWIDTH 12 0
BBX 11 16 1 0
BITMAP
0880
0500
0600
0000
2020
2020
2020
4040
4040
4040
8080
8080
8100
8100
4200
3C00
ENDCHAR
STARTCHAR uni01D4
ENCODING 468
SWIDTH 556 0
DWIDTH 9 0
BBX 9 13 0 0
BITMAP
1100
0A00
0C00
0000
2080
2080
2080
4100
4100
4100
8200
8600
7A00
ENDCHAR
STARTCHAR uni01D5
ENCODING 469
SWIDTH 722 0
DWIDTH 12 0
BBX 11 17 1 0
BITMAP
0F80
0000
0880
0880
0000
2020
2020
2020
4040
4040
4040
8080
8080
8100
8100
4200
3C00
ENDCHAR
STARTCHAR uni01D6
ENCODING 470
SWIDTH 556 0
DWIDTH 9 0
BBX 9 14 0 0
BITMAP
1F00
0000
0900
0900
0000
2080
2080
2080
4100
4100
4100
8200
8600
7A00
ENDCHAR
STARTCHAR uni01D7
ENCODING 471
SWIDTH 722 0
DWIDTH 12 0
BBX 11 19 1 0
BITMAP
0300
0200
0400
0000
0880
0880
0000
2020
2020
2020
4040
4040
4040
8080
8080
8100
8100
4200
3C00
ENDCHAR
STARTCHAR uni01D8
ENCODING 472
SWIDTH 556 0
DWIDTH 9 0
BBX 9 16 0 0
BITMAP
0300
0200
0400
0000
0900
0900
0000
2080
2080
2080
4100
4100
4100
8200
8600
7A00
ENDCHAR
STARTCHAR uni01D9
ENCODING 473
SWIDTH 722 0
DWIDTH 12 0
BBX 11 19 1 0
BITMAP
0880
0500
0600
0000
0880
0880
0000
2020
2020
2020
4040
4040
4040
8080
8080
8100
8100
4200
3C00
ENDCHAR
STARTCHAR uni01DA
ENCODING 474
SWIDTH 556 0
DWIDTH 9 0
BBX 9 16 0 0
BITMAP
1100
0A00
0C00
0000
0900
0900
0000
2080
2080
2080
4100
4100
4100
8200
8600
7A00
ENDCHAR
STARTCHAR uni01DB
ENCODING 475
SWIDTH 722 0
DWIDTH 12 0
BBX 11 19 1 0
BITMAP
0C00
0400
0200
0000
0880
0880
0000
2020
2020
2020
4040
4040
4040
8080
8080
8100
8100
4200
3C00
ENDCHAR
STARTCHAR uni01DC
ENCODING 476
SWIDTH 556 0
DWIDTH 9 0
BBX 9 16 0 0
BITMAP
1800
0800
0400
0000
0900
0900
0000
2080
2080
2080
4100
4100
4100
8200
8600
7A00
ENDCHAR
STARTCHAR uni01DD
ENCODING 477
SWIDTH 556 0
DWIDTH 9 0
BBX 8 9 0 0
BITMAP
1E
21
41
01
FF
82
82
84
78
ENDCHAR
STARTCHAR uni01DE
ENCODING 478
SWIDTH 667 0
DWIDTH 11 0
BBX 11 17 -1 0
BITMAP
07C0
0000
0220
0220
0000
0180
0280
0280
0480
0840
0840
1040
3FC0
2040
4040
4040
8040
ENDCHAR
STARTCHAR uni01DF
ENCODING 479
SWIDTH 556 0
DWIDTH 9 0
BBX 8 14 0 0
BITMAP
1F
00
09
09
00
1E
21
01
06
3A
42
84
8C
76
ENDCHAR
STARTCHAR uni01E0
ENCODING 480
SWIDTH 667 0
DWIDTH 11 0
BBX 10 17 -1 0
BITMAP
0F80
0000
0200
0200
0000
0180
0280
0280
0480
0880
0840
1040
3FC0
2040
4040
4040
8040
ENDCHAR
STARTCHAR uni01E1
ENCODING 481
SWIDTH 556 0
DWIDTH 9 0
BBX 8 14 0 0
BITMAP
3E
00
08
08
00
1E
21
01
06
3A
42
84
8C
76
ENDCHAR
STARTCHAR uni01E2
ENCODING 482
SWIDTH 1000 0
DWIDTH 16 0
BBX 16 14 0 0
BITMAP
01F0
0000
01FF
0240
0240
0480
0880
08FC
1F00
2100
2100
4200
4200
83F8
ENDCHAR
STARTCHAR uni01E3
ENCODING 483
SWIDTH 889 0
DWIDTH 15 0
BBX 14 11 0 0
BITMAP
07C0
0000
1E78
2184
0104
0704
3BFC
4200
8608
8A10
71E0
ENDCHAR
STARTCHAR uni01E4
ENCODING 484
SWIDTH 778 0
DWIDTH 13 0
BBX 11 12 1 0
BITMAP
0780
1840
2020
4020
4000
8000
83E0
8020
81E0
8040
4180
3E80
ENDCHAR
STARTCHAR uni01E5
ENCODING 485
SWIDTH 556 0
DWIDTH 9 0
BBX 10 13 -2 -4
BITMAP
0740
08C0
1040
1080
2080
2080
2100
2300
1D00
FFC0
8200
8400
7800
ENDCHAR
STARTCHAR Gcaron
ENCODING 486
SWIDTH 778 0
DWIDTH 13 0
BBX 11 16 1 0
BITMAP
0880
0500
0600
0000
0780
1840
2020
4020
4000
8000
83E0
8020
8040
8040
4180
3E80
ENDCHAR
STARTCHAR gcaron
ENCODING 487
SWIDTH 556 0
DWIDTH 9 0
BBX 10 17 -2 -4
BITMAP
0880
0500
0600
0000
0740
08C0
1040
1080
2080
2080
2100
2300
1D00
0200
8200
8400
7800
ENDCHAR
STARTCHAR uni01E8
ENCODING 488
SWIDTH 667 0
DWIDTH 11 0
BBX 11 16 0 0
BITMAP
0880
0500
0600
0000
1020
1040
1180
2200
2400
3800
6400
4400
4200
8100
8100
8080
ENDCHAR
STARTCHAR uni01E9
ENCODING 489
SWIDTH 500 0
DWIDTH 8 0
BBX 8 16 0 0
BITMAP
22
14
18
00
10
10
10
21
22
24
58
70
48
88
84
82
ENDCHAR
STARTCHAR uni01EA
ENCODING 490
SWIDTH 778 0
DWIDTH 13 0
BBX 11 15 1 -3
BITMAP
0780
1840
2020
4020
4020
8020
8020
8040
8040
8080
4300
3C00
0800
0900
0E00
ENDCHAR
STARTCHAR uni01EB
ENCODING 491
SWIDTH 556 0
DWIDTH 9 0
BBX 8 12 0 -3
BITMAP
1E
21
41
41
81
82
82
84
78
20
24
38
ENDCHAR
STARTCHAR uni01EC
ENCODING 492
SWIDTH 778 0
DWIDTH 13 0
BBX 11 17 1 -3
BITMAP
0F80
0000
0780
1840
2020
4020
4020
8020
8020
8040
8040
8080
4300
3C00
0800
0900
0E00
ENDCHAR
STARTCHAR uni01ED
ENCODING 493
SWIDTH 556 0
DWIDTH 9 0
BBX 8 14 0 -3
BITMAP
3E
00
1E
21
41
41
81
82
82
84
78
20
24
38
ENDCHAR
STARTCHAR uni01F0
ENCODING 496
SWIDTH 222 0
DWIDTH 4 0
BBX 8 17 -3 -4
BITMAP
11
0A
0C
00
04
04
04
08
08
08
10
10
10
20
20
20
C0
ENDCHAR
STARTCHAR uni01F4
ENCODING 500
SWIDTH 778 0
DWIDTH 13 0
BBX 11 16 1 0
BITMAP
0300
0200
0400
0000
0780
1840
2020
4020
4000
8000
83E0
8020
8040
8040
4180
3E80
ENDCHAR
STARTCHAR uni01F5
ENCODING 501
SWIDTH 556 0
DWIDTH 9 0
BBX 10 17 -2 -4
BITMAP
0300
0200
0400
0000
0740
08C0
1040
1080
2080
2080
2100
2300
1D00
0200
8200
8400
7800
ENDCHAR
STARTCHAR uni01F8
ENCODING 504
SWIDTH 722 0
DWIDTH 12 0
BBX 12 16 0 0
BITMAP
0C00
0400
0200
0000
1810
1810
1810
2820
2420
2420
4440
4240
4240
8280
8180
8180
ENDCHAR
STARTCHAR uni01F9
ENCODING 505
SWIDTH 556 0
DWIDTH 9 0
BBX 9 13 0 0
BITMAP
1800
0800
0400
0000
2F00
3080
2080
4100
4100
4100
8200
8200
8200
ENDCHAR
STARTCHAR Aringacute
ENCODING 506
SWIDTH 667 0
DWIDTH 11 0
BBX 10 19 -1 0
BITMAP
0180
0100
0200
0000
0180
0240
0240
0180
0280
0280
0480
0840
0840
1040
3FC0
2040
4040
4040
8040
ENDCHAR
STARTCHAR aringacute
ENCODING 507
SWIDTH 556 0
DWIDTH 9 0
BBX 8 17 0 0
BITMAP
06
04
08
00
04
0A
0A
04
1E
21
01
06
3A
42
84
8C
76
ENDCHAR
STARTCHAR AEacute
ENCODING 508
SWIDTH 1000 0
DWIDTH 16 0
BBX 16 16 0 0
BITMAP
0060
0040
0080
0000
01FF
0240
0240
0480
0880
08FC
1F00
2100
2100
4200
4200
83F8
ENDCHAR
STARTCHAR aeacute
ENCODING 509
SWIDTH 889 0
DWIDTH 15 0
BBX 14 13 0 0
BITMAP
00C0
0080
0100
0000
1E78
2184
0104
0704
3BFC
4200
8608
8A10
71E0
ENDCHAR
STARTCHAR Oslashacute
ENCODING 510
SWIDTH 778 0
DWIDTH 13 0
BBX 12 16 0 0
BITMAP
0180
0100
0200
0000
03D0
0C20
1050
2090
2110
4210
4410
4820
5020
6040
6180
9E00
ENDCHAR
STARTCHAR oslashacute
ENCODING 511
SWIDTH 611 0
DWIDTH 10 0
BBX 10 13 -1 0
BITMAP
0300
0200
0400
0000
0F40
1180
2280
2480
4880
5100
6100
6200
BC00
ENDCHAR
STARTCHAR Scommaaccent
ENCODING 536
SWIDTH 667 0
DWIDTH 11 0
BBX 11 17 0 -5
BITMAP
0780
1840
2020
2020
2000
1800
0700
0080
8080
8080
4100
3E00
0000
0400
0400
0800
1000
ENDCHAR
STARTCHAR scommaaccent
ENCODING 537
SWIDTH 500 0
DWIDTH 8 0
BBX 8 14 0 -5
BITMAP
1E
21
21
30
0C
02
82
84
78
00
10
10
20
40
ENDCHAR
STARTCHAR Tcommaaccent
ENCODING 538
SWIDTH 611 0
DWIDTH 10 0
BBX 9 17 2 -5
BITMAP
FF80
0800
0800
1000
1000
1000
2000
2000
2000
4000
4000
4000
0000
1000
1000
2000
4000
ENDCHAR
STARTCHAR tcommaaccent
ENCODING 539
SWIDTH 278 0
DWIDTH 5 0
BBX 5 16 0 -5
BITMAP
10
10
78
20
20
40
40
40
80
80
60
00
20
20
40
80
ENDCHAR
STARTCHAR uni021E
ENCODING 542
SWIDTH 722 0
DWIDTH 12 0
BBX 12 16 0 0
BITMAP
0440
0280
0300
0000
1010
1010
1010
2020
2020
3FE0
4040
4040
4040
8080
8080
8080
ENDCHAR
STARTCHAR uni021F
ENCODING 543
SWIDTH 556 0
DWIDTH 9 0
BBX 9 16 0 0
BITMAP
2200
1400
1800
0000
1000
1000
1000
2F00
3080
2080
4100
4100
4100
8200
8200
8200
ENDCHAR
STARTCHAR uni0226
ENCODING 550
SWIDTH 667 0
DWIDTH 11 0
BBX 10 15 -1 0
BITMAP
0200
0200
0000
0180
0280
0280
0480
0880
0840
1040
3FC0
2040
4040
4040
8040
ENDCHAR
STARTCHAR uni0227
ENCODING 551
SWIDTH 556 0
DWIDTH 9 0
BBX 8 12 0 0
BITMAP
08
08
00
1E
21
01
06
3A
42
84
8C
76
ENDCHAR
STARTCHAR uni0228
ENCODING 552
SWIDTH 667 0
DWIDTH 11 0
BBX 11 16 0 -4
BITMAP
1FE0
1000
1000
2000
2000
3F80
4000
4000
4000
8000
8000
FF00
0800
0800
2400
1800
ENDCHAR
STARTCHAR uni0229
ENCODING 553
SWIDTH 556 0
DWIDTH 9 0
BBX 8 13 0 -4
BITMAP
1E
21
41
41
FF
80
82
84
78
10
10
48
30
ENDCHAR
STARTCHAR uni022A
ENCODING 554
SWIDTH 778 0
DWIDTH 13 0
BBX 11 17 1 0
BITMAP
0F80
0000
0440
0440
0000
0780
1840
2020
4020
4020
8020
8020
8040
8040
8080
4300
3C00
ENDCHAR
STARTCHAR uni022B
ENCODING 555
SWIDTH 556 0
DWIDTH 9 0
BBX 8 14 0 0
BITMAP
1F
00
09
09
00
1E
21
41
41
81
82
82
84
78
ENDCHAR
STARTCHAR uni022C
ENCODING 556
SWIDTH 778 0
DWIDTH 13 0
BBX 11 17 1 0
BITMAP
0F80
0000
0340
0580
0000
0780
1840
2020
4020
4020
8020
8020
8040
8040
8080
4300
3C00
ENDCHAR
STARTCHAR uni022D
ENCODING 557
SWIDTH 556 0
DWIDTH 9 0
BBX 8 14 0 0
BITMAP
3E
00
0D
16
00
1E
21
41
41
81
82
82
84
78
ENDCHAR
STARTCHAR uni022E
ENCODING 558
SWIDTH 778 0
DWIDTH 13 0
BBX 11 15 1 0
BITMAP
0200
0200
0000
0780
1840
2020
4020
4020
8020
8020
8040
8040
8080
4300
3C00
ENDCHAR
STARTCHAR uni022F
ENCODING 559
SWIDTH 556 0
DWIDTH 9 0
BBX 8 12 0 0
BITMAP
08
08
00
1E
21
41
41
81
82
82
84
78
ENDCHAR
STARTCHAR uni0230
ENCODING 560
SWIDTH 778 0
DWIDTH 13 0
BBX 11 17 1 0
BITMAP
0F80
0000
0200
0200
0000
0780
1840
2020
4020
4020
8020
8020
8040
8040
8080
4300
3C00
ENDCHAR
STARTCHAR uni0231
ENCODING 561
SWIDTH 556 0
DWIDTH 9 0
BBX 8 14 0 0
BITMAP
3E
00
08
08
00
1E
21
41
41
81
82
82
84
78
ENDCHAR
STARTCHAR uni0232
ENCODING 562
SWIDTH 667 0
DWIDTH 11 0
BBX 10 14 2 0
BITMAP
3E00
0000
8040
8080
4100
4200
2400
2800
1000
1000
1000
2000
2000
2000
ENDCHAR
STARTCHAR uni0233
ENCODING 563
SWIDTH 500 0
DWIDTH 8 0
BBX 9 15 -1 -4
BITMAP
1F00
0000
2080
2080
2100
1100
1200
1200
0C00
0C00
0800
1000
1000
2000
C000
ENDCHAR
STARTCHAR uni0250
ENCODING 592
SWIDTH 556 0
DWIDTH 9 0
BBX 8 9 0 0
BITMAP
6E
31
21
42
5C
60
80
84
78
ENDCHAR
STARTCHAR uni0259
ENCODING 601
SWIDTH 556 0
DWIDTH 9 0
BBX 8 9 0 0
BITMAP
1E
21
41
01
FF
82
82
84
78
ENDCHAR
STARTCHAR uni025F
ENCODING 607
SWIDTH 278 0
DWIDTH 5 0
BBX 6 12 1 -3
BITMAP
04
04
04
08
08
08
10
10
78
20
20
C0
ENDCHAR
STARTCHAR uni0265
ENCODING 613
SWIDTH 556 0
DWIDTH 9 0
BBX 9 12 0 -3
BITMAP
2080
2080
2080
4100
4100
4100
8200
8600
7A00
0400
0400
0400
ENDCHAR
STARTCHAR uni0275
ENCODING 629
SWIDTH 556 0
DWIDTH 9 0
BBX 8 9 0 0
BITMAP
1E
21
41
41
FF
82
82
84
78
ENDCHAR
STARTCHAR uni0279
ENCODING 633
SWIDTH 333 0
DWIDTH 5 0
BBX 6 9 0 0
BITMAP
04
04
04
08
08
08
10
30
D0
ENDCHAR
STARTCHAR uni0287
ENCODING 647
SWIDTH 278 0
DWIDTH 5 0
BBX 5 11 0 0
BITMAP
30
08
08
10
10
10
20
20
F0
40
40
ENDCHAR
STARTCHAR uni0289
ENCODING 649
SWIDTH 556 0
DWIDTH 9 0
BBX 9 9 0 0
BITMAP
2080
2080
2080
4100
FF80
4100
8200
8600
7A00
ENDCHAR
STARTCHAR uni028C
ENCODING 652
SWIDTH 500 0
DWIDTH 8 0
BBX 7 9 1 0
BITMAP
08
1C
14
24
24
46
42
82
82
ENDCHAR
STARTCHAR uni028D
ENCODING 653
SWIDTH 722 0
DWIDTH 12 0
BBX 11 9 1 0
BITMAP
0880
0880
1940
2940
2A40
4E60
4420
8420
8420
ENDCHAR
STARTCHAR uni028E
ENCODING 654
SWIDTH 500 0
DWIDTH 8 0
BBX 9 13 -1 0
BITMAP
0180
0200
0400
0400
0800
1800
1800
2400
2400
4400
4200
8200
8200
ENDCHAR
STARTCHAR uni029E
ENCODING 670
SWIDTH 500 0
DWIDTH 8 0
BBX 8 12 0 -3
BITMAP
41
21
11
12
0E
1A
24
44
84
08
08
08
ENDCHAR
STARTCHAR uni02BB
ENCODING 699
SWIDTH 222 0
DWIDTH 4 0
BBX 3 4 2 8
BITMAP
20
40
80
80
ENDCHAR
STARTCHAR afii57929
ENCODING 700
SWIDTH 222 0
DWIDTH 4 0
BBX 3 4 1 8
BITMAP
20
20
40
80
ENDCHAR
STARTCHAR afii64937
ENCODING 701
SWIDTH 222 0
DWIDTH 4 0
BBX 3 4 1 8
BITMAP
80
80
40
20
ENDCHAR
STARTCHAR circumflex
ENCODING 710
SWIDTH 333 0
DWIDTH 6 0
BBX 5 3 0 10
BITMAP
30
50
88
ENDCHAR
STARTCHAR caron
ENCODING 711
SWIDTH 333 0
DWIDTH 6 0
BBX 5 3 0 10
BITMAP
88
50
60
ENDCHAR
STARTCHAR uni02C8
ENCODING 712
SWIDTH 191 0
DWIDTH 3 0
BBX 3 4 0 8
BITMAP
60
60
40
80
ENDCHAR
STARTCHAR macron
ENCODING 713
SWIDTH 333 0
DWIDTH 6 0
BBX 5 1 1 10
BITMAP
F8
ENDCHAR
STARTCHAR uni02CA
ENCODING 714
SWIDTH 333 0
DWIDTH 6 0
BBX 3 3 2 10
BITMAP
60
40
80
ENDCHAR
STARTCHAR uni02CB
ENCODING 715
SWIDTH 333 0
DWIDTH 6 0
BBX 3 3 1 10
BITMAP
C0
40
20
ENDCHAR
STARTCHAR uni02CD
ENCODING 717
SWIDTH 333 0
DWIDTH 6 0
BBX 5 1 1 -2
BITMAP
F8
ENDCHAR
STARTCHAR uni02CE
ENCODING 718
SWIDTH 333 0
DWIDTH 6 0
BBX 3 3 1 -4
BITMAP
C0
40
20
ENDCHAR
STARTCHAR uni02CF
ENCODING 719
SWIDTH 333 0
DWIDTH 6 0
BBX 3 3 2 -4
BITMAP
60
40
80
ENDCHAR
STARTCHAR breve
ENCODING 728
SWIDTH 333 0
DWIDTH 6 0
BBX 5 2 0 10
BITMAP
88
70
ENDCHAR
STARTCHAR dotaccent
ENCODING 729
SWIDTH 333 0
DWIDTH 6 0
BBX 1 2 3 10
BITMAP
80
80
ENDCHAR
STARTCHAR ring
ENCODING 730
SWIDTH 333 0
DWIDTH 5 0
BBX 3 4 1 9
BITMAP
40
A0
A0
40
ENDCHAR
STARTCHAR ogonek
ENCODING 731
SWIDTH 333 0
DWIDTH 6 0
BBX 4 4 0 -3
BITMAP
40
80
90
E0
ENDCHAR
STARTCHAR tilde
ENCODING 732
SWIDTH 333 0
DWIDTH 6 0
BBX 5 2 0 10
BITMAP
68
B0
ENDCHAR
STARTCHAR hungarumlaut
ENCODING 733
SWIDTH 333 0
DWIDTH 5 0
BBX 6 4 0 9
BITMAP
24
6C
48
90
ENDCHAR
STARTCHAR uni02EE
ENCODING 750
SWIDTH 333 0
DWIDTH 6 0
BBX 5 4 0 8
BITMAP
28
28
50
A0
ENDCHAR
STARTCHAR uni037E
ENCODING 894
SWIDTH 278 0
DWIDTH 4 0
BBX 5 11 -1 -2
BITMAP
08
08
00
00
00
00
00
20
20
40
80
ENDCHAR
STARTCHAR tonos
ENCODING 900
SWIDTH 333 0
DWIDTH 6 0
BBX 3 3 2 10
BITMAP
60
40
80
ENDCHAR
STARTCHAR dieresistonos
ENCODING 901
SWIDTH 333 0
DWIDTH 5 0
BBX 4 6 2 10
BITMAP
30
20
40
00
A0
A0
ENDCHAR
STARTCHAR anoteleia
ENCODING 903
SWIDTH 278 0
DWIDTH 5 0
BBX 1 2 2 5
BITMAP
80
80
ENDCHAR
STARTCHAR mu
ENCODING 956
SWIDTH 556 0
DWIDTH 9 0
BBX 10 13 -1 -4
BITMAP
1040
1040
1040
2080
2080
2080
4100
4300
7D00
4000
8000
8000
8000
ENDCHAR
STARTCHAR uni1E00
ENCODING 7680
SWIDTH 667 0
DWIDTH 11 0
BBX 10 17 -1 -5
BITMAP
0180
0280
0280
0480
0880
0840
1040
3FC0
2040
4040
4040
8040
0000
0400
0A00
0A00
0400
ENDCHAR
STARTCHAR uni1E01
ENCODING 7681
SWIDTH 556 0
DWIDTH 9 0
BBX 8 14 0 -5
BITMAP
1E
21
01
06
3A
42
84
8C
76
00
10
28
28
10
ENDCHAR
STARTCHAR uni1E02
ENCODING 7682
SWIDTH 667 0
DWIDTH 11 0
BBX 11 15 0 0
BITMAP
0200
0200
0000
1FC0
1020
1020
2020
2040
3F80
4080
4040
4040
8040
8080
FF00
ENDCHAR
STARTCHAR uni1E03
ENCODING 7683
SWIDTH 556 0
DWIDTH 9 0
BBX 8 15 0 0
BITMAP
08
08
00
10
10
10
2E
31
21
41
41
42
82
C4
B8
ENDCHAR
STARTCHAR uni1E04
ENCODING 7684
SWIDTH 667 0
DWIDTH 11 0
BBX 11 15 0 -3
BITMAP
1FC0
1020
1020
2020
2040
3F80
4080
4040
4040
8040
8080
FF00
0000
0800
0800
ENDCHAR
STARTCHAR uni1E05
ENCODING 7685
SWIDTH 556 0
DWIDTH 9 0
BBX 8 15 0 -3
BITMAP
10
10
10
2E
31
21
41
41
42
82
C4
B8
00
10
10
ENDCHAR
STARTCHAR uni1E06
ENCODING 7686
SWIDTH 667 0
DWIDTH 11 0
BBX 11 14 0 -2
BITMAP
1FC0
1020
1020
2020
2040
3F80
4080
4040
4040
8040
8080
FF00
0000
3E00
ENDCHAR
STARTCHAR uni1E07
ENCODING 7687
SWIDTH 556 0
DWIDTH 9 0
BBX 8 14 0 -2
BITMAP
10
10
10
2E
31
21
41
41
42
82
C4
B8
00
7C
ENDCHAR
STARTCHAR uni1E08
ENCODING 7688
SWIDTH 722 0
DWIDTH 12 0
BBX 11 19 1 -3
BITMAP
0300
0200
0400
0000
0780
1840
2020
4020
4000
8000
8000
8000
8040
8080
4300
3C00
0800
2400
1800
ENDCHAR
STARTCHAR uni1E09
ENCODING 7689
SWIDTH 500 0
DWIDTH 8 0
BBX 8 16 0 -3
BITMAP
06
04
08
00
1E
21
41
40
80
80
82
84
78
10
48
30
ENDCHAR
STARTCHAR uni1E0A
ENCODING 7690
SWIDTH 722 0
DWIDTH 12 0
BBX 11 15 0 0
BITMAP
0200
0200
0000
1F80
1040
1020
2020
2020
2020
4020
4040
4040
8080
8300
FC00
ENDCHAR
STARTCHAR uni1E0B
ENCODING 7691
SWIDTH 556 0
DWIDTH 9 0
BBX 9 15 0 0
BITMAP
0400
0400
0000
0080
0080
0080
1D00
2300
4100
4200
8200
8200
8400
8C00
7400
ENDCHAR
STARTCHAR uni1E0C
ENCODING 7692
SWIDTH 722 0
DWIDTH 12 0
BBX 11 15 0 -3
BITMAP
1F80
1040
1020
2020
2020
2020
4020
4040
4040
8080
8300
FC00
0000
0800
0800
ENDCHAR
STARTCHAR uni1E0D
ENCODING 7693
SWIDTH 556 0
DWIDTH 9 0
BBX 9 15 0 -3
BITMAP
0080
0080
0080
1D00
2300
4100
4200
8200
8200
8400
8C00
7400
0000
1000
1000
ENDCHAR
STARTCHAR uni1E0E
ENCODING 7694
SWIDTH 722 0
DWIDTH 12 0
BBX 11 14 0 -2
BITMAP
1F80
1040
1020
2020
2020
2020
4020
4040
4040
8080
8300
FC00
0000
3E00
ENDCHAR
STARTCHAR uni1E0F
ENCODING 7695
SWIDTH 556 0
DWIDTH 9 0
BBX 9 14 0 -2
BITMAP
0080
0080
0080
1D00
2300
4100
4200
8200
8200
8400
8C00
7400
0000
7C00
ENDCHAR
STARTCHAR uni1E10
ENCODING 7696
SWIDTH 722 0
DWIDTH 12 0
BBX 11 16 0 -4
BITMAP
1F80
1040
1020
2020
2020
2020
4020
4040
4040
8080
8300
FC00
0800
0800
2400
1800
ENDCHAR
STARTCHAR uni1E11
ENCODING 7697
SWIDTH 556 0
DWIDTH 9 0
BBX 9 16 0 -4
BITMAP
0080
0080
0080
1D00
2300
4100
4200
8200
8200
8400
8C00
7400
1000
1000
4800
3000
ENDCHAR
STARTCHAR uni1E12
ENCODING 7698
SWIDTH 722 0
DWIDTH 12 0
BBX 11 16 0 -4
BITMAP
1F80
1040
1020
2020
2020
2020
4020
4040
4040
8080
8300
FC00
0000
0C00
1400
2200
ENDCHAR
STARTCHAR uni1E13
ENCODING 7699
SWIDTH 556 0
DWIDTH 9 0
BBX 9 16 0 -4
BITMAP
0080
0080
0080
1D00
2300
4100
4200
8200
8200
8400
8C00
7400
0000
1800
2800
4400
ENDCHAR
STARTCHAR uni1E14
ENCODING 7700
SWIDTH 667 0
DWIDTH 11 0
BBX 11 18 0 0
BITMAP
0C00
0400
0200
0000
1F00
0000
1FE0
1000
1000
2000
2000
3F80
4000
4000
4000
8000
8000
FF00
ENDCHAR
STARTCHAR uni1E15
ENCODING 7701
SWIDTH 556 0
DWIDTH 9 0
BBX 8 15 0 0
BITMAP
30
10
08
00
3E
00
1E
21
41
41
FF
80
82
84
78
ENDCHAR
STARTCHAR uni1E16
ENCODING 7702
SWIDTH 667 0
DWIDTH 11 0
BBX 11 18 0 0
BITMAP
0300
0200
0400
0000
1F00
0000
1FE0
1000
1000
2000
2000
3F80
4000
4000
4000
8000
8000
FF00
ENDCHAR
STARTCHAR uni1E17
ENCODING 7703
SWIDTH 556 0
DWIDTH 9 0
BBX 8 15 0 0
BITMAP
06
04
08
00
3E
00
1E
21
41
41
FF
80
82
84
78
ENDCHAR
STARTCHAR uni1E18
ENCODING 7704
SWIDTH 667 0
DWIDTH 11 0
BBX 11 16 0 -4
BITMAP
1FE0
1000
1000
2000
2000
3F80
4000
4000
4000
8000
8000
FF00
0000
1800
2800
4400
ENDCHAR
STARTCHAR uni1E19
ENCODING 7705
SWIDTH 556 0
DWIDTH 9 0
BBX 8 13 0 -4
BITMAP
1E
21
41
41
FF
80
82
84
78
00
18
28
44
ENDCHAR
STARTCHAR uni1E1A
ENCODING 7706
SWIDTH 667 0
DWIDTH 11 0
BBX 11 15 0 -3
BITMAP
1FE0
1000
1000
2000
2000
3F80
4000
4000
4000
8000
8000
FF00
0000
3400
5800
ENDCHAR
STARTCHAR uni1E1B
ENCODING 7707
SWIDTH 556 0
DWIDTH 9 0
BBX 8 12 0 -3
BITMAP
1E
21
41
41
FF
80
82
84
78
00
34
58
ENDCHAR
STARTCHAR uni1E1C
ENCODING 7708
SWIDTH 667 0
DWIDTH 11 0
BBX 11 19 0 -4
BITMAP
1100
0E00
0000
1FE0
1000
1000
2000
2000
3F80
4000
4000
4000
8000
8000
FF00
0800
0800
2400
1800
ENDCHAR
STARTCHAR uni1E1D
ENCODING 7709
SWIDTH 556 0
DWIDTH 9 0
BBX 8 16 0 -4
BITMAP
22
1C
00
1E
21
41
41
FF
80
82
84
78
10
10
48
30
ENDCHAR
STARTCHAR uni1E1E
ENCODING 7710
SWIDTH 611 0
DWIDTH 10 0
BBX 11 15 0 0
BITMAP
0400
0400
0000
1FE0
1000
1000
2000
2000
3F80
4000
4000
4000
8000
8000
8000
ENDCHAR
STARTCHAR uni1E1F
ENCODING 7711
SWIDTH 278 0
DWIDTH 5 0
BBX 6 15 1 0
BITMAP
10
10
00
0C
10
10
78
20
20
40
40
40
80
80
80
ENDCHAR
STARTCHAR uni1E20
ENCODING 7712
SWIDTH 778 0
DWIDTH 13 0
BBX 11 14 1 0
BITMAP
0F80
0000
0780
1840
2020
4020
4000
8000
83E0
8020
8040
8040
4180
3E80
ENDCHAR
STARTCHAR uni1E21
ENCODING 7713
SWIDTH 556 0
DWIDTH 9 0
BBX 10 15 -2 -4
BITMAP
0F80
0000
0740
08C0
1040
1080
2080
2080
2100
2300
1D00
0200
8200
8400
7800
ENDCHAR
STARTCHAR uni1E22
ENCODING 7714
SWIDTH 722 0
DWIDTH 12 0
BBX 12 15 0 0
BITMAP
0200
0200
0000
1010
1010
1010
2020
2020
3FE0
4040
4040
4040
8080
8080
8080
ENDCHAR
STARTCHAR uni1E23
ENCODING 7715
SWIDTH 556 0
DWIDTH 9 0
BBX 9 15 0 0
BITMAP
0800
0800
0000
1000
1000
1000
2F00
3080
2080
4100
4100
4100
8200
8200
8200
ENDCHAR
STARTCHAR uni1E24
ENCODING 7716
SWIDTH 722 0
DWIDTH 12 0
BBX 12 15 0 -3
BITMAP
1010
1010
1010
2020
2020
3FE0
4040
4040
4040
8080
8080
8080
0000
0400
0400
ENDCHAR
STARTCHAR uni1E25
ENCODING 7717
SWIDTH 556 0
DWIDTH 9 0
BBX 9 15 0 -3
BITMAP
1000
1000
1000
2F00
3080
2080
4100
4100
4100
8200
8200
8200
0000
0800
0800
ENDCHAR
STARTCHAR uni1E26
ENCODING 7718
SWIDTH 722 0
DWIDTH 12 0
BBX 12 15 0 0
BITMAP
0500
0500
0000
1010
1010
1010
2020
2020
3FE0
4040
4040
4040
8080
8080
8080
ENDCHAR
STARTCHAR uni1E27
ENCODING 7719
SWIDTH 556 0
DWIDTH 9 0
BBX 9 15 0 0
BITMAP
1400
1400
0000
1000
1000
1000
2F00
3080
2080
4100
4100
4100
8200
8200
8200
ENDCHAR
STARTCHAR uni1E28
ENCODING 7720
SWIDTH 722 0
DWIDTH 12 0
BBX 12 16 0 -4
BITMAP
1010
1010
1010
2020
2020
3FE0
4040
4040
4040
8080
8080
8080
0400
0400
1200
0C00
ENDCHAR
STARTCHAR uni1E29
ENCODING 7721
SWIDTH 556 0
DWIDTH 9 0
BBX 9 16 0 -4
BITMAP
1000
1000
1000
2F00
3080
2080
4100
4100
4100
8200
8200
8200
0800
0800
2400
1800
ENDCHAR
STARTCHAR uni1E2A
ENCODING 7722
SWIDTH 722 0
DWIDTH 12 0
BBX 12 15 0 -3
BITMAP
1010
1010
1010
2020
2020
3FE0
4040
4040
4040
8080
8080
8080
0000
1100
0E00
ENDCHAR
STARTCHAR uni1E2B
ENCODING 7723
SWIDTH 556 0
DWIDTH 9 0
BBX 9 15 0 -3
BITMAP
1000
1000
1000
2F00
3080
2080
4100
4100
4100
8200
8200
8200
0000
2200
1C00
ENDCHAR
STARTCHAR uni1E2C
ENCODING 7724
SWIDTH 278 0
DWIDTH 4 0
BBX 6 15 -2 -3
BITMAP
04
04
04
08
08
08
10
10
10
20
20
20
00
68
B0
ENDCHAR
STARTCHAR uni1E2D
ENCODING 7725
SWIDTH 222 0
DWIDTH 3 0
BBX 6 15 -2 -3
BITMAP
04
04
00
08
08
08
10
10
10
20
20
20
00
68
B0
ENDCHAR
STARTCHAR uni1E2E
ENCODING 7726
SWIDTH 278 0
DWIDTH 4 0
BBX 6 19 0 0
BITMAP
0C
08
10
00
24
24
00
10
10
10
20
20
20
40
40
40
80
80
80
ENDCHAR
STARTCHAR uni1E2F
ENCODING 7727
SWIDTH 278 0
DWIDTH 4 0
BBX 5 16 0 0
BITMAP
18
10
20
00
48
48
00
20
20
20
40
40
40
80
80
80
ENDCHAR
STARTCHAR uni1E30
ENCODING 7728
SWIDTH 667 0
DWIDTH 11 0
BBX 11 16 0 0
BITMAP
0300
0200
0400
0000
1020
1040
1180
2200
2400
3800
6400
4400
4200
8100
8100
8080
ENDCHAR
STARTCHAR uni1E31
ENCODING 7729
SWIDTH 500 0
DWIDTH 8 0
BBX 8 16 0 0
BITMAP
0C
08
10
00
10
10
10
21
22
24
58
70
48
88
84
82
ENDCHAR
STARTCHAR uni1E32
ENCODING 7730
SWIDTH 667 0
DWIDTH 11 0
BBX 11 15 0 -3
BITMAP
1020
1040
1180
2200
2400
3800
6400
4400
4200
8100
8100
8080
0000
0800
0800
ENDCHAR
STARTCHAR uni1E33
ENCODING 7731
SWIDTH 500 0
DWIDTH 8 0
BBX 8 15 0 -3
BITMAP
10
10
10
21
22
24
58
70
48
88
84
82
00
10
10
ENDCHAR
STARTCHAR uni1E34
ENCODING 7732
SWIDTH 667 0
DWIDTH 11 0
BBX 11 14 0 -2
BITMAP
1020
1040
1180
2200
2400
3800
6400
4400
4200
8100
8100
8080
0000
3E00
ENDCHAR
STARTCHAR uni1E35
ENCODING 7733
SWIDTH 500 0
DWIDTH 8 0
BBX 8 14 0 -2
BITMAP
10
10
10
21
22
24
58
70
48
88
84
82
00
7C
ENDCHAR
STARTCHAR uni1E36
ENCODING 7734
SWIDTH 556 0
DWIDTH 9 0
BBX 7 15 0 -3
BITMAP
10
10
10
20
20
20
40
40
40
80
80
FE
00
20
20
ENDCHAR
STARTCHAR uni1E37
ENCODING 7735
SWIDTH 222 0
DWIDTH 4 0
BBX 4 15 0 -3
BITMAP
10
10
10
20
20
20
40
40
40
80
80
80
00
40
40
ENDCHAR
STARTCHAR uni1E38
ENCODING 7736
SWIDTH 556 0
DWIDTH 9 0
BBX 7 17 0 -3
BITMAP
7C
00
10
10
10
20
20
20
40
40
40
80
80
FE
00
20
20
ENDCHAR
STARTCHAR uni1E39
ENCODING 7737
SWIDTH 222 0
DWIDTH 4 0
BBX 5 17 0 -3
BITMAP
F8
00
10
10
10
20
20
20
40
40
40
80
80
80
00
40
40
ENDCHAR
STARTCHAR uni1E3A
ENCODING 7738
SWIDTH 556 0
DWIDTH 9 0
BBX 7 14 0 -2
BITMAP
10
10
10
20
20
20
40
40
40
80
80
FE
00
F8
ENDCHAR
STARTCHAR uni1E3B
ENCODING 7739
SWIDTH 222 0
DWIDTH 4 0
BBX 5 14 -1 -2
BITMAP
08
08
08
10
10
10
20
20
20
40
40
40
00
F8
ENDCHAR
STARTCHAR uni1E3C
ENCODING 7740
SWIDTH 556 0
DWIDTH 9 0
BBX 7 16 0 -4
BITMAP
10
10
10
20
20
20
40
40
40
80
80
FE
00
30
50
88
ENDCHAR
STARTCHAR uni1E3D
ENCODING 7741
SWIDTH 222 0
DWIDTH 4 0
BBX 6 16 -2 -4
BITMAP
04
04
04
08
08
08
10
10
10
20
20
20
00
30
50
88
ENDCHAR
STARTCHAR uni1E3E
ENCODING 7742
SWIDTH 833 0
DWIDTH 13 0
BBX 13 16 0 0
BITMAP
00C0
0080
0100
0000
1818
1818
1828
2828
2848
2850
4890
4490
4510
8520
8620
8620
ENDCHAR
STARTCHAR uni1E3F
ENCODING 7743
SWIDTH 833 0
DWIDTH 14 0
BBX 13 13 0 0
BITMAP
0180
0100
0200
0000
2E70
3188
2108
4210
4210
4210
8420
8420
8420
ENDCHAR
STARTCHAR uni1E40
ENCODING 7744
SWIDTH 833 0
DWIDTH 13 0
BBX 13 15 0 0
BITMAP
0100
0100
0000
1818
1818
1828
2828
2848
2850
4890
4490
4510
8520
8620
8620
ENDCHAR
STARTCHAR uni1E41
ENCODING 7745
SWIDTH 833 0
DWIDTH 14 0
BBX 13 12 0 0
BITMAP
0200
0200
0000
2E70
3188
2108
4210
4210
4210
8420
8420
8420
ENDCHAR
STARTCHAR uni1E42
ENCODING 7746
SWIDTH 833 0
DWIDTH 13 0
BBX 13 15 0 -3
BITMAP
1818
1818
1828
2828
2848
2850
4890
4490
4510
8520
8620
8620
0000
0200
0200
ENDCHAR
STARTCHAR uni1E43
ENCODING 7747
SWIDTH 833 0
DWIDTH 14 0
BBX 13 12 0 -3
BITMAP
2E70
3188
2108
4210
4210
4210
8420
8420
8420
0000
0400
0400
ENDCHAR
STARTCHAR uni1E44
ENCODING 7748
SWIDTH 722 0
DWIDTH 12 0
BBX 12 15 0 0
BITMAP
0200
0200
0000
1810
1810
1810
2820
2420
2420
4440
4240
4240
8280
8180
8180
ENDCHAR
STARTCHAR uni1E45
ENCODING 7749
SWIDTH 556 0
DWIDTH 9 0
BBX 9 12 0 0
BITMAP
0800
0800
0000
2F00
3080
2080
4100
4100
4100
8200
8200
8200
ENDCHAR
STARTCHAR uni1E46
ENCODING 7750
SWIDTH 722 0
DWIDTH 12 0
BBX 12 15 0 -3
BITMAP
1810
1810
1810
2820
2420
2420
4440
4240
4240
8280
8180
8180
0000
0400
0400
ENDCHAR
STARTCHAR uni1E47
ENCODING 7751
SWIDTH 556 0
DWIDTH 9 0
BBX 9 12 0 -3
BITMAP
2F00
3080
2080
4100
4100
4100
8200
8200
8200
0000
1000
1000
ENDCHAR
STARTCHAR uni1E48
ENCODING 7752
SWIDTH 722 0
DWIDTH 12 0
BBX 12 14 0 -2
BITMAP
1810
1810
1810
2820
2420
2420
4440
4240
4240
8280
8180
8180
0000
1F00
ENDCHAR
STARTCHAR uni1E49
ENCODING 7753
SWIDTH 556 0
DWIDTH 9 0
BBX 9 11 0 -2
BITMAP
2F00
3080
2080
4100
4100
4100
8200
8200
8200
0000
7C00
ENDCHAR
STARTCHAR uni1E4A
ENCODING 7754
SWIDTH 722 0
DWIDTH 12 0
BBX 12 16 0 -4
BITMAP
1810
1810
1810
2820
2420
2420
4440
4240
4240
8280
8180
8180
0000
0600
0A00
1100
ENDCHAR
STARTCHAR uni1E4B
ENCODING 7755
SWIDTH 556 0
DWIDTH 9 0
BBX 9 13 0 -4
BITMAP
2F00
3080
2080
4100
4100
4100
8200
8200
8200
0000
1800
2800
4400
ENDCHAR
STARTCHAR uni1E4C
ENCODING 7756
SWIDTH 778 0
DWIDTH 13 0
BBX 11 19 1 0
BITMAP
0180
0100
0200
0000
0340
0580
0000
0780
1840
2020
4020
4020
8020
8020
8040
8040
8080
4300
3C00
ENDCHAR
STARTCHAR uni1E4D
ENCODING 7757
SWIDTH 556 0
DWIDTH 9 0
BBX 8 16 0 0
BITMAP
06
04
08
00
0D
16
00
1E
21
41
41
81
82
82
84
78
ENDCHAR
STARTCHAR uni1E4E
ENCODING 7758
SWIDTH 778 0
DWIDTH 13 0
BBX 11 18 1 0
BITMAP
0500
0500
0000
0340
0580
0000
0780
1840
2020
4020
4020
8020
8020
8040
8040
8080
4300
3C00
ENDCHAR
STARTCHAR uni1E4F
ENCODING 7759
SWIDTH 556 0
DWIDTH 9 0
BBX 8 15 0 0
BITMAP
14
14
00
0D
16
00
1E
21
41
41
81
82
82
84
78
ENDCHAR
STARTCHAR uni1E50
ENCODING 7760
SWIDTH 778 0
DWIDTH 13 0
BBX 11 18 1 0
BITMAP
0C00
0400
0200
0000
0F80
0000
0780
1840
2020
4020
4020
8020
8020
8040
8040
8080
4300
3C00
ENDCHAR
STARTCHAR uni1E51
ENCODING 7761
SWIDTH 556 0
DWIDTH 9 0
BBX 8 15 0 0
BITMAP
30
10
08
00
3E
00
1E
21
41
41
81
82
82
84
78
ENDCHAR
STARTCHAR uni1E52
ENCODING 7762
SWIDTH 778 0
DWIDTH 13 0
BBX 11 18 1 0
BITMAP
0300
0200
0400
0000
0F80
0000
0780
1840
2020
4020
4020
8020
8020
8040
8040
8080
4300
3C00
ENDCHAR
STARTCHAR uni1E53
ENCODING 7763
SWIDTH 556 0
DWIDTH 9 0
BBX 8 15 0 0
BITMAP
06
04
08
00
3E
00
1E
21
41
41
81
82
82
84
78
ENDCHAR
STARTCHAR uni1E54
ENCODING 7764
SWIDTH 667 0
DWIDTH 11 0
BBX 11 16 0 0
BITMAP
0300
0200
0400
0000
1FC0
1020
1020
2020
2040
3F80
4000
4000
4000
8000
8000
8000
ENDCHAR
STARTCHAR uni1E55
ENCODING 7765
SWIDTH 556 0
DWIDTH 9 0
BBX 9 17 -1 -4
BITMAP
0600
0400
0800
0000
1700
1880
1080
2080
2080
2100
4100
6200
5C00
4000
8000
8000
8000
ENDCHAR
STARTCHAR uni1E56
ENCODING 7766
SWIDTH 667 0
DWIDTH 11 0
BBX 11 15 0 0
BITMAP
0200
0200
0000
1FC0
1020
1020
2020
2040
3F80
4000
4000
4000
8000
8000
8000
ENDCHAR
STARTCHAR uni1E57
ENCODING 7767
SWIDTH 556 0
DWIDTH 9 0
BBX 9 16 -1 -4
BITMAP
0400
0400
0000
1700
1880
1080
2080
2080
2100
4100
6200
5C00
4000
8000
8000
8000
ENDCHAR
STARTCHAR uni1E58
ENCODING 7768
SWIDTH 722 0
DWIDTH 12 0
BBX 11 15 0 0
BITMAP
0200
0200
0000
1FC0
1020
1020
2020
2040
3F80
4040
4040
4040
8080
8080
8080
ENDCHAR
STARTCHAR uni1E59
ENCODING 7769
SWIDTH 333 0
DWIDTH 5 0
BBX 6 12 0 0
BITMAP
10
10
00
2C
30
20
40
40
40
80
80
80
ENDCHAR
STARTCHAR uni1E5A
ENCODING 7770
SWIDTH 722 0
DWIDTH 12 0
BBX 11 15 0 -3
BITMAP
1FC0
1020
1020
2020
2040
3F80
4040
4040
4040
8080
8080
8080
0000
0400
0400
ENDCHAR
STARTCHAR uni1E5B
ENCODING 7771
SWIDTH 333 0
DWIDTH 5 0
BBX 6 12 0 -3
BITMAP
2C
30
20
40
40
40
80
80
80
00
40
40
ENDCHAR
STARTCHAR uni1E5C
ENCODING 7772
SWIDTH 722 0
DWIDTH 12 0
BBX 11 17 0 -3
BITMAP
0F80
0000
1FC0
1020
1020
2020
2040
3F80
4040
4040
4040
8080
8080
8080
0000
0400
0400
ENDCHAR
STARTCHAR uni1E5D
ENCODING 7773
SWIDTH 333 0
DWIDTH 5 0
BBX 6 14 0 -3
BITMAP
7C
00
2C
30
20
40
40
40
80
80
80
00
40
40
ENDCHAR
STARTCHAR uni1E5E
ENCODING 7774
SWIDTH 722 0
DWIDTH 12 0
BBX 11 14 0 -2
BITMAP
1FC0
1020
1020
2020
2040
3F80
4040
4040
4040
8080
8080
8080
0000
1F00
ENDCHAR
STARTCHAR uni1E5F
ENCODING 7775
SWIDTH 333 0
DWIDTH 5 0
BBX 7 11 -1 -2
BITMAP
16
18
10
20
20
20
40
40
40
00
F8
ENDCHAR
STARTCHAR uni1E60
ENCODING 7776
SWIDTH 667 0
DWIDTH 11 0
BBX 11 15 0 0
BITMAP
0200
0200
0000
0780
1840
2020
2020
2000
1800
0700
0080
8080
8080
4100
3E00
ENDCHAR
STARTCHAR uni1E61
ENCODING 7777
SWIDTH 500 0
DWIDTH 8 0
BBX 8 12 0 0
BITMAP
08
08
00
1E
21
21
30
0C
02
82
84
78
ENDCHAR
STARTCHAR uni1E62
ENCODING 7778
SWIDTH 667 0
DWIDTH 11 0
BBX 11 15 0 -3
BITMAP
0780
1840
2020
2020
2000
1800
0700
0080
8080
8080
4100
3E00
0000
0800
0800
ENDCHAR
STARTCHAR uni1E63
ENCODING 7779
SWIDTH 500 0
DWIDTH 8 0
BBX 8 12 0 -3
BITMAP
1E
21
21
30
0C
02
82
84
78
00
10
10
ENDCHAR
STARTCHAR uni1E64
ENCODING 7780
SWIDTH 667 0
DWIDTH 11 0
BBX 11 19 0 0
BITMAP
0200
0200
0000
0300
0200
0400
0000
0780
1840
2020
2020
2000
1800
0700
0080
8080
8080
4100
3E00
ENDCHAR
STARTCHAR uni1E65
ENCODING 7781
SWIDTH 500 0
DWIDTH 8 0
BBX 8 16 0 0
BITMAP
04
04
00
06
04
08
00
1E
21
21
30
0C
02
82
84
78
ENDCHAR
STARTCHAR uni1E66
ENCODING 7782
SWIDTH 667 0
DWIDTH 11 0
BBX 11 16 0 0
BITMAP
0200
0200
0000
0440
0280
0300
0780
1840
2020
2000
1F00
0080
8080
8080
4100
3E00
ENDCHAR
STARTCHAR uni1E67
ENCODING 7783
SWIDTH 500 0
DWIDTH 8 0
BBX 8 16 0 0
BITMAP
08
08
00
11
0A
0C
00
1E
21
21
30
0C
02
82
84
78
ENDCHAR
STARTCHAR uni1E68
ENCODING 7784
SWIDTH 667 0
DWIDTH 11 0
BBX 11 18 0 -3
BITMAP
0200
0200
0000
0780
1840
2020
2020
2000
1800
0700
0080
8080
8080
4100
3E00
0000
0800
0800
ENDCHAR
STARTCHAR uni1E69
ENCODING 7785
SWIDTH 500 0
DWIDTH 8 0
BBX 8 15 0 -3
BITMAP
08
08
00
1E
21
21
30
0C
02
82
84
78
00
10
10
ENDCHAR
STARTCHAR uni1E6A
ENCODING 7786
SWIDTH 611 0
DWIDTH 10 0
BBX 9 15 2 0
BITMAP
0800
0800
0000
FF80
0800
0800
1000
1000
1000
2000
2000
2000
4000
4000
4000
ENDCHAR
STARTCHAR uni1E6B
ENCODING 7787
SWIDTH 278 0
DWIDTH 5 0
BBX 5 14 0 0
BITMAP
20
20
00
10
10
78
20
20
40
40
40
80
80
60
ENDCHAR
STARTCHAR uni1E6C
ENCODING 7788
SWIDTH 611 0
DWIDTH 10 0
BBX 9 15 2 -3
BITMAP
FF80
0800
0800
1000
1000
1000
2000
2000
2000
4000
4000
4000
0000
2000
2000
ENDCHAR
STARTCHAR uni1E6D
ENCODING 7789
SWIDTH 278 0
DWIDTH 5 0
BBX 5 14 0 -3
BITMAP
10
10
78
20
20
40
40
40
80
80
60
00
40
40
ENDCHAR
STARTCHAR uni1E6E
ENCODING 7790
SWIDTH 611 0
DWIDTH 10 0
BBX 9 14 2 -2
BITMAP
FF80
0800
0800
1000
1000
1000
2000
2000
2000
4000
4000
4000
0000
F800
ENDCHAR
STARTCHAR uni1E6F
ENCODING 7791
SWIDTH 278 0
DWIDTH 5 0
BBX 6 13 -1 -2
BITMAP
08
08
3C
10
10
20
20
20
40
40
30
00
F8
ENDCHAR
STARTCHAR uni1E70
ENCODING 7792
SWIDTH 611 0
DWIDTH 10 0
BBX 9 16 2 -4
BITMAP
FF80
0800
0800
1000
1000
1000
2000
2000
2000
4000
4000
4000
0000
3000
5000
8800
ENDCHAR
STARTCHAR uni1E71
ENCODING 7793
SWIDTH 278 0
DWIDTH 5 0
BBX 6 15 -1 -4
BITMAP
08
08
3C
10
10
20
20
20
40
40
30
00
30
50
88
ENDCHAR
STARTCHAR uni1E72
ENCODING 7794
SWIDTH 722 0
DWIDTH 12 0
BBX 11 15 1 -3
BITMAP
2020
2020
2020
4040
4040
4040
8080
8080
8100
8100
4200
3C00
0000
1400
1400
ENDCHAR
STARTCHAR uni1E73
ENCODING 7795
SWIDTH 556 0
DWIDTH 9 0
BBX 9 12 0 -3
BITMAP
2080
2080
2080
4100
4100
4100
8200
8600
7A00
0000
1400
1400
ENDCHAR
STARTCHAR uni1E74
ENCODING 7796
SWIDTH 722 0
DWIDTH 12 0
BBX 11 15 1 -3
BITMAP
2020
2020
2020
4040
4040
4040
8080
8080
8100
8100
4200
3C00
0000
1A00
2C00
ENDCHAR
STARTCHAR uni1E75
ENCODING 7797
SWIDTH 556 0
DWIDTH 9 0
BBX 9 12 0 -3
BITMAP
2080
2080
2080
4100
4100
4100
8200
8600
7A00
0000
3400
5800
ENDCHAR
STARTCHAR uni1E76
ENCODING 7798
SWIDTH 722 0
DWIDTH 12 0
BBX 11 16 1 -4
BITMAP
2020
2020
2020
4040
4040
4040
8080
8080
8100
8100
4200
3C00
0000
0C00
1400
2200
ENDCHAR
STARTCHAR uni1E77
ENCODING 7799
SWIDTH 556 0
DWIDTH 9 0
BBX 9 13 0 -4
BITMAP
2080
2080
2080
4100
4100
4100
8200
8600
7A00
0000
1800
2800
4400
ENDCHAR
STARTCHAR uni1E78
ENCODING 7800
SWIDTH 722 0
DWIDTH 12 0
BBX 11 19 1 0
BITMAP
0300
0200
0400
0000
0680
0B00
0000
2020
2020
2020
4040
4040
4040
8080
8080
8100
8100
4200
3C00
ENDCHAR
STARTCHAR uni1E79
ENCODING 7801
SWIDTH 556 0
DWIDTH 9 0
BBX 9 16 0 0
BITMAP
0600
0400
0800
0000
0D00
1600
0000
2080
2080
2080
4100
4100
4100
8200
8600
7A00
ENDCHAR
STARTCHAR uni1E7A
ENCODING 7802
SWIDTH 722 0
DWIDTH 12 0
BBX 11 17 1 0
BITMAP
0500
0500
0000
0F80
0000
2020
2020
2020
4040
4040
4040
8080
8080
8100
8100
4200
3C00
ENDCHAR
STARTCHAR uni1E7B
ENCODING 7803
SWIDTH 556 0
DWIDTH 9 0
BBX 9 14 0 0
BITMAP
0A00
0A00
0000
1F00
0000
2080
2080
2080
4100
4100
4100
8200
8600
7A00
ENDCHAR
STARTCHAR uni1E7C
ENCODING 7804
SWIDTH 667 0
DWIDTH 11 0
BBX 9 15 2 0
BITMAP
1A00
2C00
0000
8080
8100
8100
8200
4200
4400
4400
4800
4800
3000
2000
2000
ENDCHAR
STARTCHAR uni1E7D
ENCODING 7805
SWIDTH 500 0
DWIDTH 8 0
BBX 7 12 1 0
BITMAP
34
58
00
82
82
84
C4
48
48
50
70
20
ENDCHAR
STARTCHAR uni1E7E
ENCODING 7806
SWIDTH 667 0
DWIDTH 11 0
BBX 9 15 2 -3
BITMAP
8080
8100
8100
8200
4200
4400
4400
4800
4800
3000
2000
2000
0000
1000
1000
ENDCHAR
STARTCHAR uni1E7F
ENCODING 7807
SWIDTH 500 0
DWIDTH 8 0
BBX 7 12 1 -3
BITMAP
82
82
84
C4
48
48
50
70
20
00
20
20
ENDCHAR
STARTCHAR Wgrave
ENCODING 7808
SWIDTH 944 0
DWIDTH 16 0
BBX 15 16 2 0
BITMAP
0600
0200
0100
0000
8102
8304
8304
8508
8508
8910
4890
50A0
50A0
60C0
60C0
4080
ENDCHAR
STARTCHAR wgrave
ENCODING 7809
SWIDTH 722 0
DWIDTH 12 0
BBX 11 13 1 0
BITMAP
1800
0800
0400
0000
8420
8420
8440
CE40
4A80
5280
5300
2200
2200
ENDCHAR
STARTCHAR Wacute
ENCODING 7810
SWIDTH 944 0
DWIDTH 16 0
BBX 15 16 2 0
BITMAP
0180
0100
0200
0000
8102
8304
8304
8508
8508
8910
4890
50A0
50A0
60C0
60C0
4080
ENDCHAR
STARTCHAR wacute
ENCODING 7811
SWIDTH 722 0
DWIDTH 12 0
BBX 11 13 1 0
BITMAP
0300
0200
0400
0000
8420
8420
8440
CE40
4A80
5280
5300
2200
2200
ENDCHAR
STARTCHAR Wdieresis
ENCODING 7812
SWIDTH 944 0
DWIDTH 16 0
BBX 15 15 2 0
BITMAP
0280
0280
0000
8102
8304
8304
8508
8508
8910
4890
50A0
50A0
60C0
60C0
4080
ENDCHAR
STARTCHAR wdieresis
ENCODING 7813
SWIDTH 722 0
DWIDTH 12 0
BBX 11 12 1 0
BITMAP
0A00
0A00
0000
8420
8420
8440
CE40
4A80
5280
5300
2200
2200
ENDCHAR
STARTCHAR uni1E86
ENCODING 7814
SWIDTH 944 0
DWIDTH 16 0
BBX 15 15 2 0
BITMAP
0100
0100
0000
8102
8304
8304
8508
8508
8910
4890
50A0
50A0
60C0
60C0
4080
ENDCHAR
STARTCHAR uni1E87
ENCODING 7815
SWIDTH 722 0
DWIDTH 12 0
BBX 11 12 1 0
BITMAP
0400
0400
0000
8420
8420
8440
CE40
4A80
5280
5300
2200
2200
ENDCHAR
STARTCHAR uni1E88
ENCODING 7816
SWIDTH 944 0
DWIDTH 16 0
BBX 15 15 2 -3
BITMAP
8102
8304
8304
8508
8508
8910
4890
50A0
50A0
60C0
60C0
4080
0000
0200
0200
ENDCHAR
STARTCHAR uni1E89
ENCODING 7817
SWIDTH 722 0
DWIDTH 12 0
BBX 11 12 1 -3
BITMAP
8420
8420
8440
CE40
4A80
5280
5300
2200
2200
0000
0800
0800
ENDCHAR
STARTCHAR uni1E8A
ENCODING 7818
SWIDTH 667 0
DWIDTH 11 0
BBX 11 15 0 0
BITMAP
0200
0200
0000
2020
1020
1040
0880
0900
0600
0C00
1200
2200
4100
8100
8080
ENDCHAR
STARTCHAR uni1E8B
ENCODING 7819
SWIDTH 500 0
DWIDTH 8 0
BBX 9 12 -1 0
BITMAP
0800
0800
0000
2080
2100
1200
1400
0800
1400
2400
4200
8200
ENDCHAR
STARTCHAR uni1E8C
ENCODING 7820
SWIDTH 667 0
DWIDTH 11 0
BBX 11 15 0 0
BITMAP
0500
0500
0000
2020
1020
1040
0880
0900
0600
0C00
1200
2200
4100
8100
8080
ENDCHAR
STARTCHAR uni1E8D
ENCODING 7821
SWIDTH 500 0
DWIDTH 8 0
BBX 9 12 -1 0
BITMAP
1400
1400
0000
2080
2100
1200
1400
0800
1400
2400
4200
8200
ENDCHAR
STARTCHAR uni1E8E
ENCODING 7822
SWIDTH 667 0
DWIDTH 11 0
BBX 10 15 2 0
BITMAP
0800
0800
0000
8040
8080
4100
4200
2400
2800
1000
1000
1000
2000
2000
2000
ENDCHAR
STARTCHAR uni1E8F
ENCODING 7823
SWIDTH 500 0
DWIDTH 8 0
BBX 9 16 -1 -4
BITMAP
0400
0400
0000
2080
2080
2100
1100
1200
1200
0C00
0C00
0800
1000
1000
2000
C000
ENDCHAR
STARTCHAR uni1E90
ENCODING 7824
SWIDTH 611 0
DWIDTH 10 0
BBX 12 16 -1 0
BITMAP
0180
0280
0440
0000
1FF0
0020
0040
0080
0100
0200
0400
0800
1000
2000
4000
FF80
ENDCHAR
STARTCHAR uni1E91
ENCODING 7825
SWIDTH 500 0
DWIDTH 8 0
BBX 9 13 -1 0
BITMAP
0600
0A00
1100
0000
3F80
0100
0200
0400
0800
1000
2000
4000
FE00
ENDCHAR
STARTCHAR uni1E92
ENCODING 7826
SWIDTH 611 0
DWIDTH 10 0
BBX 12 15 -1 -3
BITMAP
1FF0
0020
0040
0080
0100
0200
0400
0800
1000
2000
4000
FF80
0000
0800
0800
ENDCHAR
STARTCHAR uni1E93
ENCODING 7827
SWIDTH 500 0
DWIDTH 8 0
BBX 9 12 -1 -3
BITMAP
3F80
0100
0200
0400
0800
1000
2000
4000
FE00
0000
1000
1000
ENDCHAR
STARTCHAR uni1E94
ENCODING 7828
SWIDTH 611 0
DWIDTH 10 0
BBX 12 14 -1 -2
BITMAP
1FF0
0020
0040
0080
0100
0200
0400
0800
1000
2000
4000
FF80
0000
3E00
ENDCHAR
STARTCHAR uni1E95
ENCODING 7829
SWIDTH 500 0
DWIDTH 8 0
BBX 9 11 -1 -2
BITMAP
3F80
0100
0200
0400
0800
1000
2000
4000
FE00
0000
7C00
ENDCHAR
STARTCHAR uni1E96
ENCODING 7830
SWIDTH 556 0
DWIDTH 9 0
BBX 9 14 0 -2
BITMAP
1000
1000
1000
2F00
3080
2080
4100
4100
4100
8200
8200
8200
0000
3E00
ENDCHAR
STARTCHAR uni1E97
ENCODING 7831
SWIDTH 278 0
DWIDTH 5 0
BBX 5 14 0 0
BITMAP
50
50
00
10
10
78
20
20
40
40
40
80
80
60
ENDCHAR
STARTCHAR uni1E98
ENCODING 7832
SWIDTH 722 0
DWIDTH 12 0
BBX 11 14 1 0
BITMAP
0400
0A00
0A00
0400
0000
8420
8420
8440
CE40
4A80
5280
5300
2200
2200
ENDCHAR
STARTCHAR uni1E99
ENCODING 7833
SWIDTH 500 0
DWIDTH 8 0
BBX 9 18 -1 -4
BITMAP
0400
0A00
0A00
0400
0000
2080
2080
2100
1100
1200
1200
0C00
0C00
0800
1000
1000
2000
C000
ENDCHAR
STARTCHAR uni1EA0
ENCODING 7840
SWIDTH 667 0
DWIDTH 11 0
BBX 10 15 -1 -3
BITMAP
0180
0280
0280
0480
0880
0840
1040
3FC0
2040
4040
4040
8040
0000
0400
0400
ENDCHAR
STARTCHAR uni1EA1
ENCODING 7841
SWIDTH 556 0
DWIDTH 9 0
BBX 8 12 0 -3
BITMAP
1E
21
01
06
3A
42
84
8C
76
00
10
10
ENDCHAR
STARTCHAR uni1EA4
ENCODING 7844
SWIDTH 667 0
DWIDTH 11 0
BBX 10 20 -1 0
BITMAP
0180
0100
0200
0000
0180
0280
0440
0000
0180
0280
0280
0480
0840
0840
1040
3FC0
2040
4040
4040
8040
ENDCHAR
STARTCHAR uni1EA5
ENCODING 7845
SWIDTH 556 0
DWIDTH 9 0
BBX 8 17 0 0
BITMAP
06
04
08
00
06
0A
11
00
1E
21
01
06
3A
42
84
8C
76
ENDCHAR
STARTCHAR uni1EA6
ENCODING 7846
SWIDTH 667 0
DWIDTH 11 0
BBX 10 20 -1 0
BITMAP
0600
0200
0100
0000
0180
0280
0440
0000
0180
0280
0280
0480
0840
0840
1040
3FC0
2040
4040
4040
8040
ENDCHAR
STARTCHAR uni1EA7
ENCODING 7847
SWIDTH 556 0
DWIDTH 9 0
BBX 8 17 0 0
BITMAP
18
08
04
00
06
0A
11
00
1E
21
01
06
3A
42
84
8C
76
ENDCHAR
STARTCHAR uni1EAA
ENCODING 7850
SWIDTH 667 0
DWIDTH 11 0
BBX 10 19 -1 0
BITMAP
0340
0580
0000
0180
0280
0440
0000
0180
0280
0280
0480
0840
0840
1040
3FC0
2040
4040
4040
8040
ENDCHAR
STARTCHAR uni1EAB
ENCODING 7851
SWIDTH 556 0
DWIDTH 9 0
BBX 8 16 0 0
BITMAP
0D
16
00
06
0A
11
00
1E
21
01
06
3A
42
84
8C
76
ENDCHAR
STARTCHAR uni1EAC
ENCODING 7852
SWIDTH 667 0
DWIDTH 11 0
BBX 10 19 -1 -3
BITMAP
0300
0500
0880
0000
0180
0280
0280
0480
0880
0840
1040
3FC0
2040
4040
4040
8040
0000
0400
0400
ENDCHAR
STARTCHAR uni1EAD
ENCODING 7853
SWIDTH 556 0
DWIDTH 9 0
BBX 8 16 0 -3
BITMAP
06
0A
11
00
1E
21
01
06
3A
42
84
8C
76
00
10
10
ENDCHAR
STARTCHAR uni1EAE
ENCODING 7854
SWIDTH 667 0
DWIDTH 11 0
BBX 10 19 -1 0
BITMAP
0300
0200
0400
0000
0880
0700
0000
0180
0280
0280
0480
0880
0840
1040
3FC0
2040
4040
4040
8040
ENDCHAR
STARTCHAR uni1EAF
ENCODING 7855
SWIDTH 556 0
DWIDTH 9 0
BBX 8 16 0 0
BITMAP
06
04
08
00
22
1C
00
1E
21
01
06
3A
42
84
8C
76
ENDCHAR
STARTCHAR uni1EB0
ENCODING 7856
SWIDTH 667 0
DWIDTH 11 0
BBX 10 19 -1 0
BITMAP
0C00
0400
0200
0000
0880
0700
0000
0180
0280
0280
0480
0880
0840
1040
3FC0
2040
4040
4040
8040
ENDCHAR
STARTCHAR uni1EB1
ENCODING 7857
SWIDTH 556 0
DWIDTH 9 0
BBX 8 16 0 0
BITMAP
30
10
08
00
22
1C
00
1E
21
01
06
3A
42
84
8C
76
ENDCHAR
STARTCHAR uni1EB4
ENCODING 7860
SWIDTH 667 0
DWIDTH 11 0
BBX 10 18 -1 0
BITMAP
0680
0B00
0000
0880
0700
0000
0180
0280
0280
0480
0880
0840
1040
3FC0
2040
4040
4040
8040
ENDCHAR
STARTCHAR uni1EB5
ENCODING 7861
SWIDTH 556 0
DWIDTH 9 0
BBX 8 15 0 0
BITMAP
1A
2C
00
22
1C
00
1E
21
01
06
3A
42
84
8C
76
ENDCHAR
STARTCHAR uni1EB6
ENCODING 7862
SWIDTH 667 0
DWIDTH 11 0
BBX 10 18 -1 -3
BITMAP
0880
0700
0000
0180
0280
0280
0480
0880
0840
1040
3FC0
2040
4040
4040
8040
0000
0400
0400
ENDCHAR
STARTCHAR uni1EB7
ENCODING 7863
SWIDTH 556 0
DWIDTH 9 0
BBX 8 15 0 -3
BITMAP
11
0E
00
1E
21
01
06
3A
42
84
8C
76
00
10
10
ENDCHAR
STARTCHAR uni1EB8
ENCODING 7864
SWIDTH 667 0
DWIDTH 11 0
BBX 11 15 0 -3
BITMAP
1FE0
1000
1000
2000
2000
3F80
4000
4000
4000
8000
8000
FF00
0000
1000
1000
ENDCHAR
STARTCHAR uni1EB9
ENCODING 7865
SWIDTH 556 0
DWIDTH 9 0
BBX 8 12 0 -3
BITMAP
1E
21
41
41
FF
80
82
84
78
00
10
10
ENDCHAR
STARTCHAR uni1EBC
ENCODING 7868
SWIDTH 667 0
DWIDTH 11 0
BBX 11 15 0 0
BITMAP
0680
0B00
0000
1FE0
1000
1000
2000
2000
3F80
4000
4000
4000
8000
8000
FF00
ENDCHAR
STARTCHAR uni1EBD
ENCODING 7869
SWIDTH 556 0
DWIDTH 9 0
BBX 8 12 0 0
BITMAP
1A
2C
00
1E
21
41
41
FF
80
82
84
78
ENDCHAR
STARTCHAR uni1EBE
ENCODING 7870
SWIDTH 667 0
DWIDTH 11 0
BBX 11 20 0 0
BITMAP
0180
0100
0200
0000
0180
0280
0440
0000
1FE0
1000
1000
2000
2000
3F80
4000
4000
4000
8000
8000
FF00
ENDCHAR
STARTCHAR uni1EBF
ENCODING 7871
SWIDTH 556 0
DWIDTH 9 0
BBX 8 17 0 0
BITMAP
06
04
08
00
06
0A
11
00
1E
21
41
41
FF
80
82
84
78
ENDCHAR
STARTCHAR uni1EC0
ENCODING 7872
SWIDTH 667 0
DWIDTH 11 0
BBX 11 20 0 0
BITMAP
0600
0200
0100
0000
0180
0280
0440
0000
1FE0
1000
1000
2000
2000
3F80
4000
4000
4000
8000
8000
FF00
ENDCHAR
STARTCHAR uni1EC1
ENCODING 7873
SWIDTH 556 0
DWIDTH 9 0
BBX 8 17 0 0
BITMAP
18
08
04
00
06
0A
11
00
1E
21
41
41
FF
80
82
84
78
ENDCHAR
STARTCHAR uni1EC4
ENCODING 7876
SWIDTH 667 0
DWIDTH 11 0
BBX 11 19 0 0
BITMAP
0680
0B00
0000
0180
0280
0440
0000
1FE0
1000
1000
2000
2000
3F80
4000
4000
4000
8000
8000
FF00
ENDCHAR
STARTCHAR uni1EC5
ENCODING 7877
SWIDTH 556 0
DWIDTH 9 0
BBX 8 16 0 0
BITMAP
0D
16
00
06
0A
11
00
1E
21
41
41
FF
80
82
84
78
ENDCHAR
STARTCHAR uni1EC6
ENCODING 7878
SWIDTH 667 0
DWIDTH 11 0
BBX 11 19 0 -3
BITMAP
0600
0A00
1100
0000
1FE0
1000
1000
2000
2000
3F80
4000
4000
4000
8000
8000
FF00
0000
1000
1000
ENDCHAR
STARTCHAR uni1EC7
ENCODING 7879
SWIDTH 556 0
DWIDTH 9 0
BBX 8 16 0 -3
BITMAP
0C
14
22
00
1E
21
41
41
FF
80
82
84
78
00
10
10
ENDCHAR
STARTCHAR uni1ECA
ENCODING 7882
SWIDTH 278 0
DWIDTH 4 0
BBX 4 15 0 -3
BITMAP
10
10
10
20
20
20
40
40
40
80
80
80
00
40
40
ENDCHAR
STARTCHAR uni1ECB
ENCODING 7883
SWIDTH 222 0
DWIDTH 3 0
BBX 4 15 0 -3
BITMAP
10
10
00
20
20
20
40
40
40
80
80
80
00
40
40
ENDCHAR
STARTCHAR uni1ECC
ENCODING 7884
SWIDTH 778 0
DWIDTH 13 0
BBX 11 15 1 -3
BITMAP
0780
1840
2020
4020
4020
8020
8020
8040
8040
8080
4300
3C00
0000
0800
0800
ENDCHAR
STARTCHAR uni1ECD
ENCODING 7885
SWIDTH 556 0
DWIDTH 9 0
BBX 8 12 0 -3
BITMAP
1E
21
41
41
81
82
82
84
78
00
10
10
ENDCHAR
STARTCHAR uni1ED0
ENCODING 7888
SWIDTH 778 0
DWIDTH 13 0
BBX 11 20 1 0
BITMAP
0180
0100
0200
0000
0180
0280
0440
0000
0780
1840
2020
4020
4020
8020
8020
8040
8040
8080
4300
3C00
ENDCHAR
STARTCHAR uni1ED1
ENCODING 7889
SWIDTH 556 0
DWIDTH 9 0
BBX 8 17 0 0
BITMAP
06
04
08
00
06
0A
11
00
1E
21
41
41
81
82
82
84
78
ENDCHAR
STARTCHAR uni1ED2
ENCODING 7890
SWIDTH 778 0
DWIDTH 13 0
BBX 11 20 1 0
BITMAP
0600
0200
0100
0000
0180
0280
0440
0000
0780
1840
2020
4020
4020
8020
8020
8040
8040
8080
4300
3C00
ENDCHAR
STARTCHAR uni1ED3
ENCODING 7891
SWIDTH 556 0
DWIDTH 9 0
BBX 8 17 0 0
BITMAP
18
08
04
00
06
0A
11
00
1E
21
41
41
81
82
82
84
78
ENDCHAR
STARTCHAR uni1ED6
ENCODING 7894
SWIDTH 778 0
DWIDTH 13 0
BBX 11 19 1 0
BITMAP
0680
0B00
0000
0180
0280
0440
0000
0780
1840
2020
4020
4020
8020
8020
8040
8040
8080
4300
3C00
ENDCHAR
STARTCHAR uni1ED7
ENCODING 7895
SWIDTH 556 0
DWIDTH 9 0
BBX 8 16 0 0
BITMAP
0D
16
00
06
0A
11
00
1E
21
41
41
81
82
82
84
78
ENDCHAR
STARTCHAR uni1ED8
ENCODING 7896
SWIDTH 778 0
DWIDTH 13 0
BBX 11 19 1 -3
BITMAP
0300
0500
0880
0000
0780
1840
2020
4020
4020
8020
8020
8040
8040
8080
4300
3C00
0000
0800
0800
ENDCHAR
STARTCHAR uni1ED9
ENCODING 7897
SWIDTH 556 0
DWIDTH 9 0
BBX 8 16 0 -3
BITMAP
0C
14
22
00
1E
21
41
41
81
82
82
84
78
00
10
10
ENDCHAR
STARTCHAR uni1EDA
ENCODING 7898
SWIDTH 778 0
DWIDTH 13 0
BBX 13 16 1 0
BITMAP
0180
0100
0200
0000
0788
1848
2030
4020
4020
8020
8020
8040
8040
8080
4300
3C00
ENDCHAR
STARTCHAR uni1EDB
ENCODING 7899
SWIDTH 556 0
DWIDTH 9 0
BBX 11 13 0 0
BITMAP
0300
0200
0400
0000
1E20
2120
4140
4180
8100
8200
8200
8400
7800
ENDCHAR
STARTCHAR uni1EDC
ENCODING 7900
SWIDTH 778 0
DWIDTH 13 0
BBX 13 16 1 0
BITMAP
0600
0200
0100
0000
0788
1848
2030
4020
4020
8020
8020
8040
8040
8080
4300
3C00
ENDCHAR
STARTCHAR uni1EDD
ENCODING 7901
SWIDTH 556 0
DWIDTH 9 0
BBX 11 13 0 0
BITMAP
0C00
0400
0200
0000
1E20
2120
4140
4180
8100
8200
8200
8400
7800
ENDCHAR
STARTCHAR uni1EE0
ENCODING 7904
SWIDTH 778 0
DWIDTH 13 0
BBX 13 15 1 0
BITMAP
0340
0580
0000
0788
1848
2030
4020
4020
8020
8020
8040
8040
8080
4300
3C00
ENDCHAR
STARTCHAR uni1EE1
ENCODING 7905
SWIDTH 556 0
DWIDTH 9 0
BBX 11 12 0 0
BITMAP
0680
0B00
0000
1E20
2120
4140
4180
8100
8200
8200
8400
7800
ENDCHAR
STARTCHAR uni1EE2
ENCODING 7906
SWIDTH 778 0
DWIDTH 13 0
BBX 13 15 1 -3
BITMAP
0788
1848
2030
4020
4020
8020
8020
8040
8040
8080
4300
3C00
0000
0400
0400
ENDCHAR
STARTCHAR uni1EE3
ENCODING 7907
SWIDTH 556 0
DWIDTH 9 0
BBX 11 12 0 -3
BITMAP
1E20
2120
4140
4180
8100
8200
8200
8400
7800
0000
1000
1000
ENDCHAR
STARTCHAR uni1EE4
ENCODING 7908
SWIDTH 722 0
DWIDTH 12 0
BBX 11 15 1 -3
BITMAP
2020
2020
2020
4040
4040
4040
8080
8080
8100
8100
4200
3C00
0000
0800
0800
ENDCHAR
STARTCHAR uni1EE5
ENCODING 7909
SWIDTH 556 0
DWIDTH 9 0
BBX 9 12 0 -3
BITMAP
2080
2080
2080
4100
4100
4100
8200
8600
7A00
0000
0800
0800
ENDCHAR
STARTCHAR uni1EE8
ENCODING 7912
SWIDTH 722 0
DWIDTH 12 0
BBX 13 16 1 0
BITMAP
00C0
0080
0100
0000
2028
2028
2030
4060
4040
4040
8080
8080
8100
8100
4200
3C00
ENDCHAR
STARTCHAR uni1EE9
ENCODING 7913
SWIDTH 556 0
DWIDTH 9 0
BBX 11 13 0 0
BITMAP
0180
0100
0200
0000
20A0
20A0
20C0
4180
4100
4100
8200
8600
7A00
ENDCHAR
STARTCHAR uni1EEA
ENCODING 7914
SWIDTH 722 0
DWIDTH 12 0
BBX 13 16 1 0
BITMAP
0600
0200
0100
0000
2028
2028
2030
4060
4040
4040
8080
8080
8100
8100
4200
3C00
ENDCHAR
STARTCHAR uni1EEB
ENCODING 7915
SWIDTH 556 0
DWIDTH 9 0
BBX 11 13 0 0
BITMAP
0C00
0400
0200
0000
20A0
20A0
20C0
4180
4100
4100
8200
8600
7A00
ENDCHAR
STARTCHAR uni1EEE
ENCODING 7918
SWIDTH 722 0
DWIDTH 12 0
BBX 13 15 1 0
BITMAP
0340
0580
0000
2028
2028
2030
4060
4040
4040
8080
8080
8100
8100
4200
3C00
ENDCHAR
STARTCHAR uni1EEF
ENCODING 7919
SWIDTH 556 0
DWIDTH 9 0
BBX 11 12 0 0
BITMAP
0680
0B00
0000
20A0
20A0
20C0
4180
4100
4100
8200
8600
7A00
ENDCHAR
STARTCHAR uni1EF0
ENCODING 7920
SWIDTH 722 0
DWIDTH 12 0
BBX 13 15 1 -3
BITMAP
2028
2028
2030
4060
4040
4040
8080
8080
8100
8100
4200
3C00
0000
0800
0800
ENDCHAR
STARTCHAR uni1EF1
ENCODING 7921
SWIDTH 556 0
DWIDTH 9 0
BBX 11 12 0 -3
BITMAP
20A0
20A0
20C0
4180
4100
4100
8200
8600
7A00
0000
0800
0800
ENDCHAR
STARTCHAR Ygrave
ENCODING 7922
SWIDTH 667 0
DWIDTH 11 0
BBX 10 16 2 0
BITMAP
1800
0800
0400
0000
8040
8080
4100
4200
2400
2800
1000
1000
1000
2000
2000
2000
ENDCHAR
STARTCHAR ygrave
ENCODING 7923
SWIDTH 500 0
DWIDTH 8 0
BBX 9 17 -1 -4
BITMAP
1800
0800
0400
0000
2080
2080
2100
1100
1200
1200
0C00
0C00
0800
1000
1000
2000
C000
ENDCHAR
STARTCHAR uni1EF4
ENCODING 7924
SWIDTH 667 0
DWIDTH 11 0
BBX 10 15 2 -3
BITMAP
8040
8080
4100
4200
2400
2800
1000
1000
1000
2000
2000
2000
0000
1000
1000
ENDCHAR
STARTCHAR uni1EF5
ENCODING 7925
SWIDTH 500 0
DWIDTH 8 0
BBX 9 16 -1 -7
BITMAP
2080
2080
2100
1100
1200
1200
0C00
0C00
0800
1000
1000
2000
C000
0000
1000
1000
ENDCHAR
STARTCHAR uni1EF8
ENCODING 7928
SWIDTH 667 0
DWIDTH 11 0
BBX 10 15 2 0
BITMAP
1A00
2C00
0000
8040
8080
4100
4200
2400
2800
1000
1000
1000
2000
2000
2000
ENDCHAR
STARTCHAR uni1EF9
ENCODING 7929
SWIDTH 500 0
DWIDTH 8 0
BBX 9 16 -1 -4
BITMAP
0D00
1600
0000
2080
2080
2100
1100
1200
1200
0C00
0C00
0800
1000
1000
2000
C000
ENDCHAR
STARTCHAR uni2000
ENCODING 8192
SWIDTH 500 0
DWIDTH 8 0
BBX 1 1 0 0
BITMAP
00
ENDCHAR
STARTCHAR uni2001
ENCODING 8193
SWIDTH 1000 0
DWIDTH 17 0
BBX 1 1 0 0
BITMAP
00
ENDCHAR
STARTCHAR uni2002
ENCODING 8194
SWIDTH 500 0
DWIDTH 8 0
BBX 1 1 0 0
BITMAP
00
ENDCHAR
STARTCHAR uni2003
ENCODING 8195
SWIDTH 1000 0
DWIDTH 17 0
BBX 1 1 0 0
BITMAP
00
ENDCHAR
STARTCHAR uni2004
ENCODING 8196
SWIDTH 333 0
DWIDTH 6 0
BBX 1 1 0 0
BITMAP
00
ENDCHAR
STARTCHAR uni2005
ENCODING 8197
SWIDTH 250 0
DWIDTH 4 0
BBX 1 1 0 0
BITMAP
00
ENDCHAR
STARTCHAR uni2006
ENCODING 8198
SWIDTH 167 0
DWIDTH 3 0
BBX 1 1 0 0
BITMAP
00
ENDCHAR
STARTCHAR uni2007
ENCODING 8199
SWIDTH 556 0
DWIDTH 9 0
BBX 1 1 0 0
BITMAP
00
ENDCHAR
STARTCHAR uni2008
ENCODING 8200
SWIDTH 278 0
DWIDTH 4 0
BBX 1 1 0 0
BITMAP
00
ENDCHAR
STARTCHAR uni2009
ENCODING 8201
SWIDTH 200 0
DWIDTH 3 0
BBX 1 1 0 0
BITMAP
00
ENDCHAR
STARTCHAR uni200A
ENCODING 8202
SWIDTH 100 0
DWIDTH 2 0
BBX 1 1 0 0
BITMAP
00
ENDCHAR
STARTCHAR uni200B
ENCODING 8203
SWIDTH 0 0
DWIDTH 0 0
BBX 1 1 0 0
BITMAP
00
ENDCHAR
STARTCHAR uni2010
ENCODING 8208
SWIDTH 333 0
DWIDTH 5 0
BBX 4 1 0 4
BITMAP
F0
ENDCHAR
STARTCHAR uni2011
ENCODING 8209
SWIDTH 333 0
DWIDTH 5 0
BBX 4 1 0 4
BITMAP
F0
ENDCHAR
STARTCHAR figuredash
ENCODING 8210
SWIDTH 556 0
DWIDTH 9 0
BBX 9 1 1 4
BITMAP
FF80
ENDCHAR
STARTCHAR endash
ENCODING 8211
SWIDTH 556 0
DWIDTH 9 0
BBX 9 1 1 4
BITMAP
FF80
ENDCHAR
STARTCHAR emdash
ENCODING 8212
SWIDTH 1000 0
DWIDTH 16 0
BBX 16 1 0 4
BITMAP
FFFF
ENDCHAR
STARTCHAR afii00208
ENCODING 8213
SWIDTH 1000 0
DWIDTH 16 0
BBX 16 1 0 4
BITMAP
FFFF
ENDCHAR
STARTCHAR quoteleft
ENCODING 8216
SWIDTH 222 0
DWIDTH 4 0
BBX 3 4 2 8
BITMAP
20
40
80
80
ENDCHAR
STARTCHAR quoteright
ENCODING 8217
SWIDTH 222 0
DWIDTH 4 0
BBX 3 4 1 8
BITMAP
20
20
40
80
ENDCHAR
STARTCHAR quotesinglbase
ENCODING 8218
SWIDTH 222 0
DWIDTH 4 0
BBX 3 4 -1 -2
BITMAP
20
20
40
80
ENDCHAR
STARTCHAR quotereversed
ENCODING 8219
SWIDTH 222 0
DWIDTH 4 0
BBX 3 4 1 8
BITMAP
80
80
40
20
ENDCHAR
STARTCHAR quotedblleft
ENCODING 8220
SWIDTH 333 0
DWIDTH 6 0
BBX 5 4 1 8
BITMAP
28
50
A0
A0
ENDCHAR
STARTCHAR quotedblright
ENCODING 8221
SWIDTH 333 0
DWIDTH 6 0
BBX 5 4 0 8
BITMAP
28
28
50
A0
ENDCHAR
STARTCHAR quotedblbase
ENCODING 8222
SWIDTH 333 0
DWIDTH 6 0
BBX 5 4 -1 -2
BITMAP
28
28
50
A0
ENDCHAR
STARTCHAR uni201F
ENCODING 8223
SWIDTH 333 0
DWIDTH 6 0
BBX 5 4 0 8
BITMAP
A0
A0
50
28
ENDCHAR
STARTCHAR dagger
ENCODING 8224
SWIDTH 556 0
DWIDTH 9 0
BBX 7 15 3 -3
BITMAP
08
08
08
10
FE
10
20
20
20
40
40
40
80
80
80
ENDCHAR
STARTCHAR daggerdbl
ENCODING 8225
SWIDTH 556 0
DWIDTH 9 0
BBX 9 15 1 -3
BITMAP
0200
0200
0200
0400
3F80
0400
0800
0800
0800
1000
FE00
1000
2000
2000
2000
ENDCHAR
STARTCHAR bullet
ENCODING 8226
SWIDTH 350 0
DWIDTH 6 0
BBX 5 4 0 4
BITMAP
30
78
F0
60
ENDCHAR
STARTCHAR ellipsis
ENCODING 8230
SWIDTH 1000 0
DWIDTH 15 0
BBX 11 2 2 0
BITMAP
8420
8420
ENDCHAR
STARTCHAR perthousand
ENCODING 8240
SWIDTH 1000 0
DWIDTH 17 0
BBX 17 12 -1 0
BITMAP
308000
490000
890000
920000
640000
040000
08C300
092480
122880
224900
218600
400000
ENDCHAR
STARTCHAR guilsinglleft
ENCODING 8249
SWIDTH 333 0
DWIDTH 6 0
BBX 3 5 1 3
BITMAP
20
40
80
40
20
ENDCHAR
STARTCHAR guilsinglright
ENCODING 8250
SWIDTH 333 0
DWIDTH 6 0
BBX 3 5 2 3
BITMAP
80
40
20
40
80
ENDCHAR
STARTCHAR fraction
ENCODING 8260
SWIDTH 167 0
DWIDTH 3 0
BBX 9 12 -3 0
BITMAP
0080
0100
0200
0200
0400
0800
1000
1000
2000
4000
4000
8000
ENDCHAR
STARTCHAR oneinferior
ENCODING 8321
SWIDTH 333 0
DWIDTH 6 0
BBX 3 7 2 -4
BITMAP
20
E0
20
40
40
80
80
ENDCHAR
STARTCHAR twoinferior
ENCODING 8322
SWIDTH 333 0
DWIDTH 6 0
BBX 6 7 0 -4
BITMAP
38
44
04
18
60
80
F8
ENDCHAR
STARTCHAR threeinferior
ENCODING 8323
SWIDTH 333 0
DWIDTH 6 0
BBX 6 7 0 -4
BITMAP
38
44
04
38
08
88
70
ENDCHAR
STARTCHAR uni20A5
ENCODING 8357
SWIDTH 833 0
DWIDTH 14 0
BBX 13 12 0 -1
BITMAP
0040
0080
2EF0
3188
2108
4210
4210
4610
8420
8C20
8C20
1000
ENDCHAR
STARTCHAR uni20A6
ENCODING 8358
SWIDTH 722 0
DWIDTH 12 0
BBX 12 12 0 0
BITMAP
1810
1810
1810
2820
3FE0
2420
4440
7FC0
4240
8280
8180
8180
ENDCHAR
STARTCHAR uni20A9
ENCODING 8361
SWIDTH 944 0
DWIDTH 16 0
BBX 15 12 2 0
BITMAP
8102
8304
8304
8508
8FF8
8910
4890
5FE0
50A0
60C0
60C0
4080
ENDCHAR
STARTCHAR Euro
ENCODING 8364
SWIDTH 722 0
DWIDTH 12 0
BBX 13 12 -1 0
BITMAP
01E0
0610
0808
1008
7F80
2000
2000
FF00
2010
2020
10C0
0F00
ENDCHAR
STARTCHAR uni20AD
ENCODING 8365
SWIDTH 667 0
DWIDTH 11 0
BBX 11 12 0 0
BITMAP
1020
1040
1180
2200
2400
FFE0
6400
4400
4200
8100
8100
8080
ENDCHAR
STARTCHAR uni2103
ENCODING 8451
SWIDTH 1102 0
DWIDTH 19 0
BBX 18 12 1 0
BITMAP
300F00
483080
884040
908040
608000
010000
010000
010000
010080
010100
008600
007800
ENDCHAR
STARTCHAR uni2109
ENCODING 8457
SWIDTH 991 0
DWIDTH 17 0
BBX 17 12 1 0
BITMAP
307F80
484000
884000
908000
608000
00FE00
010000
010000
010000
020000
020000
020000
ENDCHAR
STARTCHAR trademark
ENCODING 8482
SWIDTH 1000 0
DWIDTH 17 0
BBX 12 7 3 5
BITMAP
FB30
2330
4350
4550
45A0
89A0
8920
ENDCHAR
STARTCHAR uni212A
ENCODING 8490
SWIDTH 667 0
DWIDTH 11 0
BBX 11 12 0 0
BITMAP
1020
1040
1180
2200
2400
3800
6400
4400
4200
8100
8100
8080
ENDCHAR
STARTCHAR uni212B
ENCODING 8491
SWIDTH 667 0
DWIDTH 11 0
BBX 10 15 -1 0
BITMAP
0180
0240
0240
0180
0280
0280
0480
0840
0840
1040
3FC0
2040
4040
4040
8040
ENDCHAR
STARTCHAR uni2132
ENCODING 8498
SWIDTH 611 0
DWIDTH 10 0
BBX 11 12 0 0
BITMAP
0020
0020
0020
0040
0040
0040
3F80
0080
0080
0100
0100
FF00
ENDCHAR
STARTCHAR minus
ENCODING 8722
SWIDTH 584 0
DWIDTH 10 0
BBX 9 1 0 4
BITMAP
FF80
ENDCHAR
STARTCHAR fraction
ENCODING 8725
SWIDTH 167 0
DWIDTH 3 0
BBX 9 12 -3 0
BITMAP
0080
0100
0200
0200
0400
0800
1000
1000
2000
4000
4000
8000
ENDCHAR
STARTCHAR periodcentered
ENCODING 8729
SWIDTH 278 0
DWIDTH 5 0
BBX 1 2 2 5
BITMAP
80
80
ENDCHAR
STARTCHAR uni2236
ENCODING 8758
SWIDTH 278 0
DWIDTH 4 0
BBX 3 9 1 0
BITMAP
20
20
00
00
00
00
00
80
80
ENDCHAR
STARTCHAR uni2259
ENCODING 8793
SWIDTH 584 0
DWIDTH 10 0
BBX 9 8 0 2
BITMAP
0C00
1400
2200
0000
7F80
0000
0000
FF00
ENDCHAR
STARTCHAR uni225A
ENCODING 8794
SWIDTH 584 0
DWIDTH 10 0
BBX 9 8 0 2
BITMAP
2200
1400
1800
0000
7F80
0000
0000
FF00
ENDCHAR
STARTCHAR notequal
ENCODING 8800
SWIDTH 584 0
DWIDTH 10 0
BBX 9 12 0 -2
BITMAP
0100
0200
0200
0400
7F80
0800
0800
FF00
1000
2000
2000
4000
ENDCHAR
STARTCHAR equivalence
ENCODING 8801
SWIDTH 584 0
DWIDTH 10 0
BBX 9 5 0 2
BITMAP
FF80
0000
FF80
0000
FF80
ENDCHAR
STARTCHAR uni2262
ENCODING 8802
SWIDTH 584 0
DWIDTH 10 0
BBX 9 12 0 -1
BITMAP
0100
0200
0200
0400
FF80
0800
FF80
1000
FF80
2000
2000
4000
ENDCHAR
STARTCHAR lessequal
ENCODING 8804
SWIDTH 584 0
DWIDTH 10 0
BBX 10 10 0 -1
BITMAP
00C0
0700
1800
6000
8000
6000
1C00
0300
0000
FFC0
ENDCHAR
STARTCHAR greaterequal
ENCODING 8805
SWIDTH 584 0
DWIDTH 10 0
BBX 10 10 0 -1
BITMAP
3000
0E00
0180
0040
0180
0600
3800
C000
0000
FFC0
ENDCHAR
STARTCHAR uni226E
ENCODING 8814
SWIDTH 584 0
DWIDTH 10 0
BBX 10 12 0 -1
BITMAP
0080
0100
01C0
0700
1A00
6400
8400
6800
1C00
1300
1000
2000
ENDCHAR
STARTCHAR uni226F
ENCODING 8815
SWIDTH 584 0
DWIDTH 10 0
BBX 10 12 0 -1
BITMAP
0080
0100
3100
0E00
0380
0440
0580
0E00
3800
D000
1000
2000
ENDCHAR
STARTCHAR uni2270
ENCODING 8816
SWIDTH 584 0
DWIDTH 10 0
BBX 10 12 0 -2
BITMAP
0080
01C0
0700
1A00
6200
8400
6400
1C00
0B00
1000
FFC0
2000
ENDCHAR
STARTCHAR uni2271
ENCODING 8817
SWIDTH 584 0
DWIDTH 10 0
BBX 10 12 0 -2
BITMAP
0080
3100
0F00
0380
0240
0580
0600
3800
C800
1000
FFC0
2000
ENDCHAR
STARTCHAR fi
ENCODING -1
SWIDTH 500 0
DWIDTH 8 0
BBX 8 12 0 0
BITMAP
0D
11
10
7A
22
22
44
44
44
88
88
88
ENDCHAR
STARTCHAR fl
ENCODING -1
SWIDTH 500 0
DWIDTH 8 0
BBX 8 12 0 0
BITMAP
0D
11
11
7A
22
22
44
44
44
88
88
88
ENDCHAR
ENDFONT
